<svg id="svg" version="1.1" width="400" height="390.5723905723906" xmlns="http://www.w3.org/2000/svg" xmlns:xlink="http://www.w3.org/1999/xlink" style="display: block;"><g id="svgg"><path id="path0" d="" stroke="none" fill="#000000" fill-rule="evenodd"></path><path id="path1" d="M255.236 8.146 C 256.063 9.077,256.250 9.162,256.250 8.607 C 256.250 8.400,255.854 8.023,255.371 7.769 C 254.497 7.311,254.496 7.313,255.236 8.146 " stroke="none" fill="#555500" fill-rule="evenodd"></path><path id="path2" d="M172.266 0.391 C 172.266 0.627,170.582 0.781,167.997 0.781 C 164.919 0.781,163.579 0.929,163.197 1.312 C 162.871 1.638,161.405 1.916,159.410 2.032 C 156.920 2.176,156.070 2.372,155.792 2.868 C 155.510 3.372,154.841 3.516,152.763 3.516 C 150.869 3.516,149.955 3.685,149.609 4.102 C 149.291 4.485,148.421 4.688,147.096 4.688 C 145.609 4.687,144.846 4.896,144.231 5.469 C 143.646 6.014,142.852 6.250,141.606 6.250 C 140.378 6.250,139.749 6.433,139.594 6.836 C 139.445 7.224,138.823 7.425,137.751 7.431 C 136.749 7.436,135.761 7.730,135.156 8.203 C 134.619 8.623,133.642 8.971,132.985 8.976 C 132.328 8.980,131.449 9.242,131.032 9.558 C 130.615 9.873,129.788 10.137,129.195 10.144 C 128.602 10.151,127.816 10.508,127.448 10.938 C 126.997 11.465,126.296 11.719,125.292 11.719 C 124.329 11.719,123.724 11.926,123.579 12.305 C 123.442 12.660,122.852 12.891,122.076 12.891 C 121.374 12.891,120.591 13.141,120.338 13.446 C 120.084 13.751,119.184 14.119,118.337 14.262 C 117.394 14.421,116.797 14.736,116.797 15.073 C 116.797 15.427,116.372 15.625,115.613 15.625 C 114.921 15.625,114.335 15.868,114.204 16.211 C 114.080 16.533,113.661 16.797,113.271 16.797 C 112.146 16.797,111.328 17.226,111.328 17.815 C 111.328 18.177,110.869 18.359,109.961 18.359 C 109.006 18.359,108.594 18.536,108.594 18.945 C 108.594 19.340,108.199 19.531,107.385 19.531 C 106.505 19.531,106.121 19.744,105.973 20.313 C 105.819 20.900,105.440 21.094,104.447 21.094 C 103.532 21.094,103.125 21.274,103.125 21.680 C 103.125 22.044,102.756 22.266,102.152 22.266 C 101.602 22.266,100.966 22.605,100.691 23.047 C 100.394 23.522,99.780 23.828,99.125 23.828 C 98.532 23.828,98.047 23.983,98.047 24.172 C 98.047 24.361,97.080 25.005,95.898 25.603 C 94.717 26.201,93.750 26.925,93.750 27.212 C 93.750 27.523,93.310 27.734,92.665 27.734 C 92.068 27.734,91.283 28.042,90.921 28.418 C 89.395 30.001,88.767 30.469,88.170 30.469 C 87.823 30.469,87.398 30.692,87.226 30.965 C 87.055 31.238,86.431 31.674,85.840 31.933 C 85.249 32.193,84.766 32.585,84.766 32.804 C 84.766 33.024,84.409 33.203,83.972 33.203 C 83.536 33.203,83.077 33.467,82.954 33.789 C 82.830 34.111,82.484 34.375,82.185 34.375 C 81.885 34.375,81.641 34.727,81.641 35.156 C 81.641 35.757,81.380 35.938,80.511 35.937 C 79.866 35.937,79.284 36.189,79.156 36.523 C 79.032 36.846,78.738 37.109,78.502 37.109 C 78.266 37.109,77.492 37.725,76.783 38.477 C 76.074 39.229,75.213 39.844,74.870 39.844 C 74.527 39.844,74.058 40.195,73.828 40.625 C 73.598 41.055,73.153 41.406,72.838 41.406 C 72.523 41.406,72.266 41.670,72.266 41.992 C 72.266 42.314,71.996 42.578,71.667 42.578 C 71.338 42.578,70.968 42.842,70.844 43.164 C 70.721 43.486,70.471 43.750,70.288 43.750 C 70.106 43.750,69.535 44.146,69.019 44.629 C 67.721 45.845,66.308 46.875,65.936 46.875 C 65.765 46.875,65.625 47.139,65.625 47.461 C 65.625 47.783,65.430 48.047,65.192 48.047 C 64.592 48.047,62.906 49.697,62.897 50.293 C 62.894 50.562,62.621 50.781,62.292 50.781 C 61.963 50.781,61.593 51.045,61.469 51.367 C 61.346 51.689,61.000 51.953,60.700 51.953 C 60.401 51.953,60.156 52.205,60.156 52.513 C 60.156 52.821,59.805 53.184,59.375 53.320 C 58.945 53.457,58.594 53.820,58.594 54.128 C 58.594 54.436,58.330 54.688,58.008 54.688 C 57.686 54.688,57.422 54.855,57.422 55.060 C 57.422 55.545,55.545 57.422,55.060 57.422 C 54.855 57.422,54.688 57.686,54.688 58.008 C 54.688 58.330,54.436 58.594,54.128 58.594 C 53.820 58.594,53.457 58.945,53.320 59.375 C 53.184 59.805,52.821 60.156,52.513 60.156 C 52.205 60.156,51.953 60.401,51.953 60.700 C 51.953 61.000,51.689 61.346,51.367 61.469 C 51.045 61.593,50.781 61.963,50.781 62.292 C 50.781 62.621,50.586 62.891,50.348 62.891 C 49.748 62.891,48.062 64.541,48.054 65.137 C 48.050 65.405,47.783 65.625,47.461 65.625 C 47.139 65.625,46.875 65.765,46.875 65.936 C 46.875 66.308,45.845 67.721,44.629 69.019 C 44.146 69.535,43.750 70.106,43.750 70.288 C 43.750 70.471,43.486 70.721,43.164 70.844 C 42.842 70.968,42.578 71.338,42.578 71.667 C 42.578 71.996,42.314 72.266,41.992 72.266 C 41.670 72.266,41.406 72.535,41.406 72.864 C 41.406 73.193,41.149 73.561,40.835 73.681 C 40.521 73.802,40.145 74.280,39.999 74.743 C 39.854 75.207,39.179 76.113,38.500 76.758 C 37.821 77.402,37.148 78.237,37.004 78.613 C 36.861 78.989,36.562 79.297,36.340 79.297 C 36.119 79.297,35.938 79.824,35.938 80.469 C 35.938 81.380,35.764 81.641,35.156 81.641 C 34.727 81.641,34.375 81.885,34.375 82.185 C 34.375 82.484,34.111 82.830,33.789 82.954 C 33.467 83.077,33.203 83.536,33.203 83.972 C 33.203 84.409,33.024 84.766,32.804 84.766 C 32.585 84.766,32.193 85.249,31.933 85.840 C 31.674 86.431,31.238 87.055,30.965 87.226 C 30.692 87.398,30.469 87.792,30.469 88.101 C 30.469 88.684,29.600 89.896,28.418 90.963 C 28.042 91.302,27.734 92.068,27.734 92.665 C 27.734 93.310,27.523 93.750,27.212 93.750 C 26.925 93.750,26.201 94.717,25.603 95.898 C 25.005 97.080,24.361 98.047,24.172 98.047 C 23.983 98.047,23.828 98.532,23.828 99.125 C 23.828 99.780,23.522 100.394,23.047 100.691 C 22.605 100.966,22.266 101.602,22.266 102.152 C 22.266 102.756,22.044 103.125,21.680 103.125 C 21.274 103.125,21.094 103.532,21.094 104.447 C 21.094 105.440,20.900 105.819,20.313 105.973 C 19.744 106.121,19.531 106.505,19.531 107.385 C 19.531 108.199,19.340 108.594,18.945 108.594 C 18.536 108.594,18.359 109.006,18.359 109.961 C 18.359 110.869,18.177 111.328,17.815 111.328 C 17.226 111.328,16.797 112.146,16.797 113.271 C 16.797 113.661,16.533 114.080,16.211 114.204 C 15.868 114.335,15.625 114.921,15.625 115.613 C 15.625 116.372,15.427 116.797,15.073 116.797 C 14.736 116.797,14.421 117.394,14.262 118.337 C 14.119 119.184,13.751 120.084,13.446 120.338 C 13.141 120.591,12.891 121.374,12.891 122.076 C 12.891 122.852,12.660 123.442,12.305 123.579 C 11.926 123.724,11.719 124.329,11.719 125.292 C 11.719 126.296,11.465 126.997,10.938 127.448 C 10.508 127.816,10.151 128.602,10.144 129.195 C 10.137 129.788,9.873 130.615,9.558 131.032 C 9.242 131.449,8.980 132.328,8.976 132.985 C 8.971 133.642,8.623 134.619,8.203 135.156 C 7.730 135.761,7.436 136.749,7.431 137.751 C 7.425 138.823,7.224 139.445,6.836 139.594 C 6.433 139.749,6.250 140.378,6.250 141.606 C 6.250 142.852,6.014 143.646,5.469 144.231 C 4.896 144.846,4.688 145.609,4.688 147.096 C 4.688 148.421,4.485 149.291,4.102 149.609 C 3.685 149.955,3.516 150.869,3.516 152.763 C 3.516 154.841,3.372 155.510,2.868 155.792 C 2.372 156.070,2.176 156.920,2.032 159.410 C 1.916 161.405,1.638 162.871,1.312 163.197 C 0.929 163.579,0.781 164.919,0.781 167.997 C 0.781 170.582,0.627 172.266,0.391 172.266 C 0.135 172.266,0.000 180.143,0.000 195.117 C 0.000 210.091,0.135 217.969,0.391 217.969 C 0.628 217.969,0.781 219.701,0.781 222.383 C 0.781 225.346,0.939 226.954,1.260 227.276 C 1.523 227.539,1.857 229.277,2.002 231.139 C 2.190 233.563,2.442 234.653,2.890 234.980 C 3.353 235.319,3.516 236.100,3.516 237.984 C 3.516 239.673,3.697 240.680,4.055 240.977 C 4.363 241.233,4.669 242.450,4.768 243.812 C 4.886 245.444,5.147 246.350,5.595 246.678 C 6.046 247.007,6.250 247.725,6.250 248.981 C 6.250 250.243,6.431 250.875,6.836 251.031 C 7.243 251.187,7.422 251.821,7.422 253.106 C 7.422 254.461,7.631 255.147,8.203 255.664 C 8.719 256.131,8.984 256.867,8.984 257.831 C 8.984 258.769,9.194 259.372,9.570 259.516 C 9.957 259.665,10.156 260.276,10.156 261.313 C 10.156 262.461,10.367 263.015,10.938 263.372 C 11.520 263.736,11.719 264.283,11.719 265.524 C 11.719 266.742,11.876 267.188,12.305 267.188 C 12.710 267.188,12.891 267.595,12.891 268.507 C 12.891 269.233,13.141 270.034,13.446 270.287 C 13.751 270.541,14.116 271.427,14.256 272.258 C 14.397 273.088,14.762 273.863,15.068 273.981 C 15.374 274.098,15.625 274.645,15.625 275.195 C 15.625 275.746,15.889 276.298,16.211 276.421 C 16.533 276.545,16.797 277.067,16.797 277.581 C 16.797 278.095,17.148 278.867,17.578 279.297 C 18.008 279.727,18.359 280.518,18.359 281.055 C 18.359 281.662,18.581 282.031,18.945 282.031 C 19.340 282.031,19.531 282.426,19.531 283.240 C 19.531 284.120,19.744 284.504,20.313 284.652 C 20.900 284.806,21.094 285.185,21.094 286.178 C 21.094 287.093,21.274 287.500,21.680 287.500 C 22.074 287.500,22.266 287.895,22.266 288.708 C 22.266 289.588,22.478 289.972,23.047 290.121 C 23.596 290.265,23.828 290.654,23.828 291.432 C 23.828 292.041,24.048 292.680,24.316 292.852 C 24.919 293.237,25.657 294.383,26.216 295.801 C 26.448 296.392,26.885 296.875,27.187 296.875 C 27.498 296.875,27.734 297.263,27.734 297.772 C 27.734 298.639,28.354 299.680,29.785 301.218 C 30.161 301.622,30.469 302.305,30.469 302.734 C 30.469 303.168,30.729 303.516,31.055 303.516 C 31.377 303.516,31.641 303.840,31.641 304.236 C 31.641 304.633,31.992 305.275,32.422 305.664 C 32.852 306.053,33.203 306.613,33.203 306.909 C 33.203 307.204,33.467 307.548,33.789 307.671 C 34.111 307.795,34.375 308.120,34.375 308.395 C 34.375 308.669,34.727 308.985,35.156 309.098 C 35.687 309.236,35.937 309.630,35.937 310.327 C 35.937 310.891,36.201 311.454,36.523 311.577 C 36.846 311.701,37.115 312.003,37.122 312.249 C 37.129 312.494,37.744 313.302,38.489 314.044 C 39.234 314.785,39.844 315.619,39.844 315.896 C 39.844 316.173,40.195 316.619,40.625 316.888 C 41.055 317.156,41.406 317.597,41.406 317.867 C 41.406 318.138,41.670 318.359,41.992 318.359 C 42.318 318.359,42.578 318.707,42.578 319.141 C 42.578 319.575,42.839 319.922,43.164 319.922 C 43.486 319.922,43.750 320.186,43.750 320.508 C 43.750 320.830,44.002 321.094,44.310 321.094 C 44.617 321.094,44.991 321.489,45.140 321.973 C 45.403 322.825,45.940 323.533,47.363 324.905 C 47.739 325.268,48.047 325.789,48.047 326.063 C 48.047 326.338,48.311 326.563,48.633 326.563 C 48.955 326.563,49.219 326.806,49.219 327.103 C 49.219 327.400,49.570 327.735,50.000 327.848 C 50.430 327.960,50.781 328.332,50.781 328.674 C 50.781 329.017,51.045 329.297,51.367 329.297 C 51.689 329.297,51.953 329.465,51.953 329.670 C 51.953 330.154,53.830 332.031,54.315 332.031 C 54.520 332.031,54.688 332.295,54.688 332.617 C 54.688 332.939,54.939 333.203,55.247 333.203 C 55.555 333.203,55.918 333.555,56.055 333.984 C 56.191 334.414,56.554 334.766,56.862 334.766 C 57.170 334.766,57.422 335.029,57.422 335.352 C 57.422 335.674,57.686 335.938,58.008 335.938 C 58.330 335.938,58.594 336.218,58.594 336.560 C 58.594 336.902,58.945 337.274,59.375 337.387 C 59.805 337.499,60.156 337.834,60.156 338.131 C 60.156 338.429,60.420 338.672,60.742 338.672 C 61.064 338.672,61.328 338.936,61.328 339.258 C 61.328 339.580,61.478 339.844,61.662 339.844 C 62.153 339.844,64.063 341.693,64.063 342.169 C 64.063 342.394,64.317 342.578,64.629 342.578 C 64.941 342.578,65.350 342.855,65.540 343.193 C 65.879 343.799,66.934 344.508,68.652 345.286 C 69.136 345.505,69.531 345.952,69.531 346.279 C 69.531 346.607,69.795 346.875,70.117 346.875 C 70.439 346.875,70.703 347.139,70.703 347.461 C 70.703 347.786,71.050 348.047,71.484 348.047 C 71.926 348.047,72.266 348.307,72.266 348.645 C 72.266 348.974,72.573 349.356,72.949 349.495 C 73.325 349.633,73.773 349.979,73.945 350.264 C 74.117 350.548,74.589 350.781,74.993 350.781 C 75.398 350.781,75.840 351.133,75.977 351.562 C 76.113 351.992,76.482 352.344,76.796 352.344 C 77.111 352.344,77.469 352.607,77.593 352.930 C 77.717 353.252,78.044 353.516,78.320 353.516 C 78.597 353.516,78.917 353.763,79.033 354.065 C 79.149 354.367,79.783 354.732,80.442 354.877 C 81.101 355.022,81.641 355.390,81.641 355.695 C 81.641 356.000,81.904 356.250,82.227 356.250 C 82.549 356.250,82.813 356.423,82.813 356.635 C 82.813 356.847,83.428 357.278,84.180 357.592 C 84.932 357.906,85.547 358.348,85.547 358.574 C 85.547 358.800,85.898 358.984,86.328 358.984 C 86.762 358.984,87.109 359.245,87.109 359.570 C 87.109 359.928,87.474 360.156,88.044 360.156 C 88.558 360.156,89.081 360.423,89.206 360.748 C 89.331 361.074,89.877 361.509,90.420 361.715 C 90.962 361.921,91.406 362.270,91.406 362.490 C 91.406 362.710,91.934 362.891,92.578 362.891 C 93.349 362.891,93.750 363.087,93.750 363.465 C 93.750 363.781,94.717 364.497,95.898 365.056 C 97.080 365.615,98.047 366.221,98.047 366.404 C 98.047 366.586,98.560 366.847,99.186 366.985 C 99.813 367.123,100.422 367.488,100.541 367.797 C 100.663 368.115,101.271 368.359,101.941 368.359 C 102.717 368.359,103.125 368.555,103.125 368.928 C 103.125 369.266,103.668 369.598,104.465 369.747 C 105.202 369.886,105.900 370.245,106.015 370.546 C 106.132 370.849,106.754 371.094,107.410 371.094 C 108.202 371.094,108.594 371.288,108.594 371.680 C 108.594 372.085,109.001 372.266,109.915 372.266 C 110.908 372.266,111.288 372.460,111.441 373.047 C 111.590 373.616,111.974 373.828,112.854 373.828 C 113.668 373.828,114.063 374.019,114.063 374.414 C 114.063 374.823,114.475 375.000,115.430 375.000 C 116.338 375.000,116.797 375.183,116.797 375.544 C 116.797 376.166,117.626 376.562,118.929 376.562 C 119.423 376.562,120.045 376.826,120.312 377.148 C 120.580 377.471,121.374 377.734,122.076 377.734 C 122.845 377.734,123.442 377.965,123.576 378.313 C 123.698 378.632,124.505 379.005,125.368 379.143 C 126.232 379.281,127.139 379.636,127.384 379.932 C 127.629 380.227,128.503 380.469,129.325 380.469 C 130.262 380.469,130.946 380.692,131.155 381.067 C 131.340 381.396,132.182 381.778,133.027 381.915 C 133.872 382.052,134.797 382.398,135.083 382.684 C 135.375 382.975,136.447 383.203,137.528 383.203 C 138.979 383.203,139.453 383.347,139.453 383.789 C 139.453 384.232,139.931 384.375,141.406 384.375 C 142.839 384.375,143.568 384.583,144.141 385.156 C 144.716 385.732,145.443 385.938,146.903 385.938 C 148.143 385.938,149.103 386.157,149.470 386.523 C 149.869 386.923,150.856 387.109,152.567 387.109 C 154.557 387.109,155.240 387.271,155.859 387.891 C 156.509 388.540,157.161 388.672,159.724 388.672 C 162.104 388.672,162.858 388.805,163.032 389.258 C 163.214 389.732,164.118 389.844,167.761 389.844 C 170.504 389.844,172.266 389.997,172.266 390.234 C 172.266 390.490,180.143 390.625,195.117 390.625 C 210.091 390.625,217.969 390.490,217.969 390.234 C 217.969 389.996,219.796 389.844,222.669 389.844 C 226.486 389.844,227.410 389.734,227.593 389.258 C 227.767 388.805,228.521 388.672,230.901 388.672 C 233.464 388.672,234.116 388.540,234.766 387.891 C 235.397 387.259,236.068 387.109,238.262 387.109 C 240.148 387.109,241.072 386.946,241.289 386.574 C 241.475 386.257,242.538 385.964,243.906 385.854 C 245.434 385.731,246.370 385.450,246.684 385.022 C 247.017 384.565,247.747 384.375,249.164 384.375 C 250.688 384.375,251.172 384.234,251.172 383.789 C 251.172 383.347,251.646 383.203,253.097 383.203 C 254.178 383.203,255.250 382.975,255.542 382.684 C 255.828 382.398,256.762 382.050,257.619 381.911 C 258.476 381.772,259.373 381.391,259.612 381.064 C 259.859 380.726,260.641 380.469,261.421 380.469 C 262.177 380.469,262.998 380.224,263.246 379.925 C 263.494 379.626,264.482 379.264,265.442 379.120 C 266.579 378.950,267.188 378.662,267.188 378.296 C 267.188 377.918,267.619 377.734,268.507 377.734 C 269.233 377.734,270.045 377.471,270.313 377.148 C 270.580 376.826,271.202 376.563,271.696 376.563 C 272.999 376.562,273.828 376.166,273.828 375.544 C 273.828 375.183,274.287 375.000,275.195 375.000 C 276.150 375.000,276.563 374.823,276.563 374.414 C 276.563 374.019,276.957 373.828,277.771 373.828 C 278.651 373.828,279.035 373.616,279.184 373.047 C 279.337 372.460,279.717 372.266,280.710 372.266 C 281.624 372.266,282.031 372.085,282.031 371.680 C 282.031 371.270,282.444 371.094,283.398 371.094 C 284.353 371.094,284.766 370.917,284.766 370.508 C 284.766 370.186,285.103 369.922,285.515 369.922 C 286.679 369.922,287.500 369.501,287.500 368.904 C 287.500 368.558,287.932 368.359,288.684 368.359 C 289.354 368.359,289.962 368.115,290.084 367.797 C 290.203 367.488,290.812 367.123,291.439 366.985 C 292.065 366.847,292.578 366.586,292.578 366.404 C 292.578 366.221,293.545 365.615,294.727 365.056 C 295.908 364.497,296.875 363.781,296.875 363.465 C 296.875 363.092,297.271 362.891,298.005 362.891 C 298.649 362.891,299.232 362.639,299.360 362.305 C 299.484 361.982,299.827 361.719,300.123 361.719 C 300.418 361.719,300.978 361.367,301.367 360.937 C 301.756 360.508,302.399 360.156,302.795 360.156 C 303.191 360.156,303.516 359.893,303.516 359.570 C 303.516 359.242,303.864 358.984,304.309 358.984 C 304.746 358.984,305.199 358.733,305.317 358.426 C 305.435 358.118,306.045 357.688,306.672 357.469 C 307.299 357.251,307.812 356.887,307.812 356.661 C 307.813 356.435,308.076 356.250,308.398 356.250 C 308.721 356.250,308.984 356.000,308.984 355.695 C 308.984 355.390,309.524 355.022,310.183 354.877 C 310.842 354.732,311.476 354.367,311.592 354.065 C 311.708 353.763,312.028 353.516,312.305 353.516 C 312.581 353.516,312.908 353.252,313.032 352.930 C 313.156 352.607,313.484 352.344,313.761 352.344 C 314.038 352.344,314.485 351.992,314.753 351.563 C 315.021 351.133,315.422 350.781,315.644 350.781 C 316.314 350.781,318.359 349.108,318.359 348.559 C 318.359 348.277,318.711 348.047,319.141 348.047 C 319.575 348.047,319.922 347.786,319.922 347.461 C 319.922 347.139,320.174 346.875,320.481 346.875 C 320.789 346.875,321.141 346.567,321.264 346.191 C 321.386 345.815,322.201 345.166,323.075 344.748 C 323.948 344.331,324.833 343.671,325.041 343.283 C 325.248 342.896,325.676 342.578,325.990 342.578 C 326.305 342.578,326.567 342.358,326.573 342.090 C 326.579 341.821,327.190 341.162,327.930 340.625 C 328.670 340.088,329.280 339.429,329.286 339.160 C 329.292 338.892,329.561 338.672,329.883 338.672 C 330.205 338.672,330.469 338.429,330.469 338.131 C 330.469 337.834,330.820 337.499,331.250 337.387 C 331.680 337.274,332.031 336.902,332.031 336.560 C 332.031 336.218,332.295 335.938,332.617 335.938 C 332.939 335.938,333.203 335.694,333.203 335.397 C 333.203 335.100,333.555 334.765,333.984 334.652 C 334.414 334.540,334.766 334.168,334.766 333.826 C 334.766 333.483,335.029 333.203,335.352 333.203 C 335.674 333.203,335.938 332.939,335.938 332.617 C 335.938 332.295,336.105 332.031,336.310 332.031 C 336.795 332.031,338.672 330.154,338.672 329.670 C 338.672 329.465,338.936 329.297,339.258 329.297 C 339.580 329.297,339.844 329.017,339.844 328.674 C 339.844 328.332,340.195 327.960,340.625 327.848 C 341.055 327.735,341.406 327.400,341.406 327.103 C 341.406 326.806,341.670 326.563,341.992 326.563 C 342.314 326.563,342.584 326.343,342.591 326.074 C 342.597 325.806,343.213 324.979,343.958 324.238 C 344.703 323.496,345.313 322.557,345.313 322.150 C 345.313 321.740,345.660 321.320,346.094 321.207 C 346.523 321.095,346.875 320.759,346.875 320.462 C 346.875 320.165,347.139 319.922,347.461 319.922 C 347.786 319.922,348.047 319.575,348.047 319.141 C 348.047 318.707,348.307 318.359,348.633 318.359 C 348.955 318.359,349.219 318.138,349.219 317.867 C 349.219 317.597,349.570 317.156,350.000 316.888 C 350.430 316.619,350.781 316.173,350.781 315.896 C 350.781 315.619,351.391 314.785,352.136 314.044 C 352.881 313.302,353.496 312.494,353.503 312.249 C 353.510 312.003,353.779 311.701,354.102 311.577 C 354.424 311.454,354.688 310.891,354.688 310.327 C 354.688 309.630,354.938 309.236,355.469 309.098 C 355.898 308.985,356.250 308.669,356.250 308.395 C 356.250 308.120,356.514 307.795,356.836 307.671 C 357.158 307.548,357.422 307.204,357.422 306.909 C 357.422 306.613,357.773 306.053,358.203 305.664 C 358.633 305.275,358.984 304.633,358.984 304.236 C 358.984 303.840,359.248 303.516,359.570 303.516 C 359.893 303.516,360.156 303.191,360.156 302.795 C 360.156 302.399,360.508 301.756,360.938 301.367 C 361.367 300.978,361.719 300.443,361.719 300.177 C 361.719 299.911,361.982 299.592,362.305 299.468 C 362.647 299.337,362.891 298.751,362.891 298.059 C 362.891 297.292,363.088 296.875,363.450 296.875 C 363.758 296.875,364.133 296.488,364.283 296.014 C 364.433 295.541,364.797 294.913,365.091 294.619 C 365.385 294.325,365.625 293.853,365.625 293.569 C 365.625 293.285,365.872 292.958,366.174 292.842 C 366.476 292.726,366.838 292.106,366.979 291.465 C 367.120 290.824,367.488 290.203,367.797 290.084 C 368.115 289.962,368.359 289.354,368.359 288.684 C 368.359 287.892,368.553 287.500,368.945 287.500 C 369.351 287.500,369.531 287.093,369.531 286.178 C 369.531 285.185,369.725 284.806,370.313 284.652 C 370.881 284.504,371.094 284.120,371.094 283.240 C 371.094 282.426,371.285 282.031,371.680 282.031 C 372.059 282.031,372.266 281.651,372.266 280.953 C 372.266 280.298,372.572 279.684,373.047 279.388 C 373.545 279.076,373.828 278.477,373.828 277.731 C 373.828 276.953,374.024 276.563,374.414 276.563 C 374.820 276.563,375.000 276.155,375.000 275.237 C 375.000 274.442,375.226 273.825,375.564 273.695 C 375.875 273.576,376.245 272.860,376.386 272.105 C 376.528 271.349,376.890 270.527,377.189 270.279 C 377.489 270.030,377.734 269.233,377.734 268.507 C 377.734 267.619,377.918 267.188,378.296 267.188 C 378.662 267.188,378.950 266.579,379.120 265.442 C 379.264 264.482,379.626 263.494,379.925 263.246 C 380.224 262.998,380.469 262.132,380.469 261.322 C 380.469 260.373,380.677 259.769,381.055 259.624 C 381.436 259.478,381.641 258.871,381.641 257.885 C 381.641 256.867,381.897 256.139,382.422 255.664 C 382.994 255.147,383.203 254.461,383.203 253.106 C 383.203 251.821,383.382 251.187,383.789 251.031 C 384.194 250.875,384.375 250.243,384.375 248.981 C 384.375 247.734,384.580 247.007,385.022 246.684 C 385.448 246.372,385.733 245.431,385.858 243.921 C 385.963 242.661,386.287 241.392,386.579 241.100 C 386.918 240.760,387.109 239.645,387.109 238.003 C 387.109 236.056,387.267 235.323,387.763 234.960 C 388.257 234.598,388.458 233.667,388.592 231.116 C 388.708 228.921,388.956 227.594,389.306 227.303 C 389.700 226.977,389.844 225.757,389.844 222.737 C 389.844 219.361,389.967 218.480,390.527 217.861 C 391.161 217.161,391.211 215.520,391.211 195.313 C 391.211 175.106,391.161 173.465,390.527 172.764 C 389.967 172.145,389.844 171.263,389.844 167.868 C 389.844 164.899,389.694 163.577,389.313 163.197 C 388.987 162.871,388.709 161.405,388.593 159.410 C 388.449 156.920,388.253 156.070,387.757 155.792 C 387.252 155.510,387.109 154.839,387.109 152.743 C 387.109 150.875,386.931 149.877,386.523 149.470 C 386.157 149.103,385.937 148.143,385.937 146.903 C 385.937 145.443,385.732 144.716,385.156 144.141 C 384.605 143.589,384.375 142.839,384.375 141.589 C 384.375 140.376,384.191 139.748,383.789 139.594 C 383.379 139.437,383.203 138.797,383.203 137.458 C 383.203 136.068,382.990 135.334,382.422 134.766 C 381.992 134.336,381.641 133.470,381.641 132.840 C 381.641 132.211,381.377 131.433,381.055 131.110 C 380.732 130.788,380.469 129.891,380.469 129.117 C 380.469 128.227,380.254 127.627,379.883 127.485 C 379.561 127.361,379.294 126.796,379.292 126.228 C 379.283 124.640,378.867 123.438,378.326 123.438 C 378.033 123.438,377.754 122.710,377.632 121.631 C 377.520 120.638,377.259 119.715,377.052 119.581 C 376.845 119.446,376.555 118.721,376.408 117.969 C 375.999 115.879,374.111 113.835,373.321 114.626 C 372.986 114.961,372.456 115.234,372.144 115.234 C 371.831 115.234,371.484 115.586,371.371 116.016 C 371.259 116.445,370.887 116.797,370.544 116.797 C 370.202 116.797,369.922 117.061,369.922 117.383 C 369.922 117.705,369.658 117.969,369.336 117.969 C 369.014 117.969,368.750 118.140,368.750 118.350 C 368.750 118.844,362.590 125.000,362.095 125.000 C 361.888 125.000,361.719 125.264,361.719 125.586 C 361.719 125.908,361.455 126.172,361.133 126.172 C 360.811 126.172,360.547 126.424,360.547 126.731 C 360.547 127.039,360.195 127.403,359.766 127.539 C 359.336 127.675,358.984 128.039,358.984 128.347 C 358.984 128.654,358.721 128.906,358.398 128.906 C 358.076 128.906,357.813 129.170,357.813 129.492 C 357.813 129.814,357.549 130.078,357.227 130.078 C 356.904 130.078,356.641 130.336,356.641 130.650 C 356.641 130.965,356.289 131.411,355.859 131.641 C 355.430 131.871,355.078 132.369,355.078 132.748 C 355.078 133.127,354.887 133.629,354.653 133.862 C 354.348 134.168,354.348 134.360,354.653 134.549 C 354.887 134.694,355.078 135.571,355.078 136.499 C 355.078 137.522,355.309 138.377,355.664 138.672 C 356.001 138.951,356.250 139.803,356.250 140.673 C 356.250 141.667,356.519 142.456,357.031 142.969 C 357.575 143.513,357.813 144.271,357.813 145.466 C 357.813 146.631,358.001 147.254,358.398 147.407 C 358.790 147.557,358.988 148.187,358.997 149.304 C 359.009 150.933,359.782 152.588,360.293 152.077 C 360.432 151.937,360.547 153.061,360.547 154.575 C 360.547 156.544,360.713 157.464,361.133 157.813 C 361.539 158.150,361.719 159.047,361.719 160.742 C 361.719 162.316,361.906 163.341,362.246 163.623 C 362.596 163.914,362.851 165.449,363.007 168.203 C 363.180 171.252,363.399 172.464,363.838 172.794 C 364.328 173.163,364.441 174.429,364.477 179.951 C 364.509 185.005,364.653 186.837,365.060 187.373 C 365.887 188.465,365.869 205.171,365.039 205.859 C 364.565 206.253,364.453 207.487,364.453 212.325 C 364.453 217.254,364.345 218.412,363.836 218.921 C 363.398 219.359,363.154 220.619,362.997 223.246 C 362.854 225.651,362.590 227.107,362.247 227.391 C 361.911 227.670,361.714 228.701,361.706 230.224 C 361.699 231.706,361.476 232.906,361.120 233.375 C 360.788 233.814,360.547 234.981,360.547 236.147 C 360.547 237.664,360.354 238.334,359.766 238.867 C 359.194 239.384,358.984 240.070,358.984 241.419 C 358.984 242.582,358.768 243.443,358.398 243.750 C 358.064 244.027,357.813 244.879,357.813 245.732 C 357.813 246.685,357.590 247.351,357.198 247.571 C 356.853 247.764,356.486 248.669,356.360 249.641 C 356.236 250.590,355.897 251.508,355.607 251.680 C 355.296 251.863,355.078 252.668,355.078 253.636 C 355.078 254.858,354.877 255.406,354.297 255.769 C 353.728 256.124,353.516 256.680,353.516 257.816 C 353.516 258.941,353.353 259.375,352.930 259.375 C 352.520 259.375,352.344 259.787,352.344 260.742 C 352.344 261.663,352.163 262.109,351.789 262.109 C 351.482 262.109,351.111 262.668,350.960 263.357 C 350.809 264.043,350.444 264.846,350.148 265.142 C 349.852 265.439,349.609 266.097,349.609 266.606 C 349.609 267.115,349.434 267.640,349.220 267.773 C 348.778 268.046,346.875 271.928,346.875 272.554 C 346.875 272.779,346.611 273.064,346.289 273.188 C 345.947 273.320,345.703 273.905,345.703 274.597 C 345.703 275.360,345.506 275.781,345.148 275.781 C 344.843 275.781,344.475 276.320,344.330 276.980 C 344.185 277.639,343.820 278.273,343.518 278.388 C 343.216 278.504,342.969 279.087,342.969 279.684 C 342.969 280.440,342.732 280.830,342.188 280.973 C 341.505 281.151,341.170 282.095,341.360 283.301 C 341.385 283.462,341.143 283.594,340.820 283.594 C 340.495 283.594,340.234 283.941,340.234 284.375 C 340.234 284.805,339.985 285.156,339.679 285.156 C 339.374 285.156,339.006 285.695,338.861 286.355 C 338.717 287.014,338.351 287.648,338.049 287.763 C 337.747 287.879,337.500 288.219,337.500 288.518 C 337.500 288.818,337.336 289.063,337.135 289.063 C 336.934 289.063,336.547 289.678,336.275 290.430 C 336.003 291.182,335.552 291.797,335.273 291.797 C 334.994 291.797,334.766 292.042,334.766 292.341 C 334.766 292.640,334.502 292.986,334.180 293.110 C 333.857 293.234,333.594 293.516,333.594 293.738 C 333.594 293.959,333.242 294.492,332.813 294.922 C 332.383 295.352,332.031 296.055,332.031 296.484 C 332.031 296.918,331.771 297.266,331.445 297.266 C 331.123 297.266,330.859 297.529,330.859 297.852 C 330.859 298.174,330.591 298.438,330.264 298.438 C 329.936 298.438,329.501 298.877,329.297 299.414 C 329.093 299.951,328.745 300.391,328.525 300.391 C 328.305 300.391,328.125 300.734,328.125 301.154 C 328.125 301.936,326.434 303.906,325.763 303.906 C 325.558 303.906,325.391 304.084,325.391 304.302 C 325.391 304.520,324.512 305.572,323.438 306.641 C 322.363 307.709,321.484 308.685,321.484 308.810 C 321.484 308.935,320.869 309.617,320.117 310.326 C 319.365 311.035,318.750 311.725,318.750 311.858 C 318.750 312.162,317.602 313.586,316.699 314.400 C 316.323 314.740,316.016 315.242,316.016 315.517 C 316.016 315.791,315.664 316.016,315.234 316.016 C 314.800 316.016,314.453 316.276,314.453 316.602 C 314.453 316.924,314.265 317.188,314.035 317.188 C 313.456 317.188,312.483 318.212,312.779 318.508 C 312.912 318.641,312.743 318.750,312.403 318.750 C 312.064 318.750,311.152 319.365,310.378 320.117 C 309.604 320.869,308.866 321.484,308.739 321.484 C 308.295 321.484,306.654 323.247,306.647 323.730 C 306.644 323.999,306.371 324.219,306.042 324.219 C 305.713 324.219,305.343 324.482,305.219 324.805 C 305.096 325.127,304.750 325.391,304.450 325.391 C 304.151 325.391,303.906 325.642,303.906 325.950 C 303.906 326.258,303.555 326.621,303.125 326.758 C 302.695 326.894,302.344 327.244,302.344 327.534 C 302.344 327.825,301.831 328.176,301.205 328.313 C 300.578 328.451,299.968 328.816,299.850 329.125 C 299.731 329.435,299.365 329.688,299.036 329.688 C 298.707 329.688,298.438 329.951,298.438 330.273 C 298.438 330.596,298.183 330.859,297.871 330.859 C 297.559 330.859,297.164 331.083,296.992 331.356 C 296.820 331.629,296.196 332.065,295.605 332.324 C 295.015 332.583,294.531 332.975,294.531 333.195 C 294.531 333.414,294.298 333.594,294.013 333.594 C 293.728 333.594,292.982 334.209,292.355 334.961 C 291.701 335.746,290.858 336.328,290.376 336.328 C 289.914 336.328,289.436 336.592,289.312 336.914 C 289.188 337.236,288.837 337.500,288.531 337.500 C 288.225 337.500,287.879 337.747,287.763 338.049 C 287.648 338.351,287.014 338.717,286.355 338.861 C 285.695 339.006,285.156 339.374,285.156 339.679 C 285.156 339.985,284.805 340.234,284.375 340.234 C 283.941 340.234,283.594 340.495,283.594 340.820 C 283.594 341.143,283.257 341.406,282.844 341.406 C 281.680 341.406,280.859 341.827,280.859 342.425 C 280.859 342.769,280.429 342.969,279.688 342.969 C 279.043 342.969,278.516 343.142,278.516 343.354 C 278.516 343.566,277.900 343.997,277.148 344.311 C 276.396 344.625,275.781 345.067,275.781 345.293 C 275.781 345.518,275.363 345.703,274.853 345.703 C 274.342 345.703,273.705 345.967,273.438 346.289 C 273.170 346.611,272.621 346.875,272.218 346.875 C 271.814 346.875,271.133 347.227,270.703 347.656 C 270.273 348.086,269.592 348.438,269.188 348.438 C 268.785 348.438,268.236 348.701,267.969 349.023 C 267.701 349.346,267.077 349.609,266.582 349.609 C 266.086 349.609,265.439 349.852,265.142 350.148 C 264.846 350.444,264.043 350.809,263.357 350.960 C 262.671 351.111,262.109 351.473,262.109 351.765 C 262.109 352.097,261.560 352.342,260.645 352.418 C 259.728 352.494,259.216 352.722,259.277 353.027 C 259.331 353.296,259.243 353.479,259.082 353.435 C 258.172 353.183,255.469 353.978,255.469 354.497 C 255.469 354.926,255.005 355.078,253.699 355.078 C 252.486 355.078,251.858 355.263,251.704 355.664 C 251.580 355.986,251.014 356.252,250.446 356.255 C 248.813 356.264,247.656 356.685,247.656 357.272 C 247.656 357.659,247.112 357.813,245.745 357.813 C 244.406 357.813,243.766 357.988,243.609 358.398 C 243.451 358.808,242.812 358.984,241.479 358.984 C 240.070 358.984,239.390 359.188,238.867 359.766 C 238.334 360.354,237.664 360.547,236.147 360.547 C 234.981 360.547,233.814 360.788,233.375 361.120 C 232.954 361.439,231.750 361.702,230.664 361.712 C 228.145 361.735,226.953 362.065,226.953 362.741 C 226.953 363.163,226.148 363.281,223.290 363.281 C 220.510 363.281,219.510 363.423,219.141 363.867 C 218.746 364.342,217.497 364.453,212.527 364.453 C 207.744 364.453,206.233 364.579,205.641 365.027 C 204.504 365.886,185.764 365.898,184.905 365.039 C 184.433 364.567,183.106 364.453,178.085 364.453 C 172.904 364.453,171.813 364.354,171.626 363.867 C 171.447 363.401,170.611 363.281,167.536 363.281 C 164.494 363.281,163.672 363.166,163.672 362.737 C 163.672 361.981,162.800 361.721,160.222 361.706 C 158.898 361.699,157.703 361.463,157.250 361.120 C 156.811 360.788,155.644 360.547,154.478 360.547 C 152.961 360.547,152.291 360.354,151.758 359.766 C 151.235 359.188,150.555 358.984,149.146 358.984 C 147.813 358.984,147.174 358.808,147.016 358.398 C 146.866 358.007,146.250 357.813,145.162 357.813 C 144.016 357.813,143.335 357.581,142.864 357.031 C 142.407 356.498,141.712 356.250,140.671 356.250 C 139.676 356.250,139.068 356.046,138.921 355.664 C 138.767 355.263,138.139 355.078,136.926 355.078 C 135.620 355.078,135.156 354.926,135.156 354.497 C 135.156 353.978,132.453 353.183,131.543 353.435 C 131.382 353.479,131.294 353.296,131.348 353.027 C 131.409 352.722,130.897 352.494,129.980 352.418 C 129.065 352.342,128.516 352.097,128.516 351.765 C 128.516 351.473,127.954 351.111,127.268 350.960 C 126.582 350.809,125.779 350.444,125.483 350.148 C 125.186 349.852,124.539 349.609,124.043 349.609 C 123.548 349.609,122.924 349.346,122.656 349.023 C 122.389 348.701,121.840 348.438,121.437 348.438 C 121.033 348.438,120.352 348.086,119.922 347.656 C 119.492 347.227,118.811 346.875,118.407 346.875 C 118.004 346.875,117.455 346.611,117.187 346.289 C 116.920 345.967,116.283 345.703,115.772 345.703 C 115.262 345.703,114.844 345.518,114.844 345.293 C 114.844 345.067,114.229 344.625,113.477 344.311 C 112.725 343.997,112.109 343.566,112.109 343.354 C 112.109 343.142,111.582 342.969,110.938 342.969 C 110.148 342.969,109.766 342.775,109.766 342.373 C 109.766 342.027,109.286 341.681,108.619 341.548 C 107.988 341.422,107.378 341.075,107.264 340.776 C 107.149 340.478,106.699 340.234,106.262 340.234 C 105.826 340.234,105.469 339.985,105.469 339.679 C 105.469 339.374,104.941 339.009,104.297 338.867 C 103.652 338.726,103.125 338.444,103.125 338.241 C 103.125 338.037,102.686 337.704,102.148 337.500 C 101.611 337.296,101.172 336.949,101.172 336.728 C 101.172 336.508,100.716 336.328,100.159 336.328 C 99.474 336.328,99.079 336.075,98.941 335.547 C 98.829 335.117,98.513 334.766,98.238 334.766 C 97.964 334.766,97.639 334.502,97.515 334.180 C 97.391 333.857,97.021 333.594,96.692 333.594 C 96.363 333.594,96.094 333.414,96.094 333.195 C 96.094 332.975,95.610 332.583,95.020 332.324 C 94.429 332.065,93.805 331.629,93.633 331.356 C 93.461 331.083,93.066 330.859,92.754 330.859 C 92.442 330.859,92.188 330.596,92.188 330.273 C 92.188 329.951,91.918 329.688,91.589 329.688 C 91.260 329.687,90.894 329.435,90.775 329.125 C 90.657 328.816,90.047 328.451,89.420 328.313 C 88.794 328.176,88.281 327.825,88.281 327.534 C 88.281 327.244,87.930 326.894,87.500 326.758 C 87.070 326.621,86.719 326.258,86.719 325.950 C 86.719 325.642,86.455 325.391,86.133 325.391 C 85.811 325.391,85.547 325.127,85.547 324.805 C 85.547 324.479,85.200 324.219,84.766 324.219 C 84.336 324.219,83.981 323.999,83.978 323.730 C 83.969 323.135,82.283 321.484,81.683 321.484 C 81.445 321.484,81.250 321.221,81.250 320.898 C 81.250 320.576,81.045 320.313,80.794 320.313 C 80.544 320.313,80.061 320.061,79.720 319.754 C 79.380 319.447,78.610 318.743,78.010 318.191 C 77.409 317.639,76.750 317.188,76.545 317.188 C 76.340 317.188,76.172 316.924,76.172 316.602 C 76.172 316.276,75.825 316.016,75.391 316.016 C 74.961 316.016,74.604 315.796,74.597 315.527 C 74.590 315.259,73.975 314.432,73.230 313.691 C 72.485 312.949,71.875 312.109,71.875 311.823 C 71.875 311.537,71.618 311.205,71.304 311.084 C 70.990 310.964,70.626 310.530,70.496 310.120 C 70.366 309.710,70.008 309.375,69.700 309.375 C 69.392 309.375,69.141 309.111,69.141 308.789 C 69.141 308.467,68.877 308.203,68.555 308.203 C 68.232 308.203,67.969 308.004,67.969 307.761 C 67.969 307.518,67.354 306.739,66.602 306.029 C 65.850 305.320,65.234 304.552,65.234 304.323 C 65.234 304.094,64.971 303.906,64.648 303.906 C 64.326 303.906,64.063 303.654,64.063 303.347 C 64.063 303.039,63.711 302.675,63.281 302.539 C 62.782 302.381,62.500 301.948,62.500 301.341 C 62.500 300.818,62.320 300.391,62.100 300.391 C 61.880 300.391,61.532 299.951,61.328 299.414 C 61.124 298.877,60.689 298.438,60.361 298.438 C 60.034 298.438,59.766 298.174,59.766 297.852 C 59.766 297.529,59.502 297.266,59.180 297.266 C 58.833 297.266,58.593 296.907,58.592 296.387 C 58.591 295.903,57.976 294.839,57.225 294.021 C 56.474 293.204,55.859 292.369,55.859 292.166 C 55.859 291.963,55.610 291.797,55.304 291.797 C 54.999 291.797,54.631 291.258,54.486 290.599 C 54.342 289.940,53.976 289.306,53.674 289.190 C 53.372 289.074,53.125 288.753,53.125 288.477 C 53.125 288.200,52.861 287.873,52.539 287.749 C 52.217 287.626,51.953 287.063,51.953 286.499 C 51.953 285.812,51.703 285.408,51.194 285.275 C 50.776 285.166,50.377 284.699,50.306 284.238 C 50.235 283.776,49.961 283.442,49.698 283.496 C 49.434 283.550,49.240 283.462,49.265 283.301 C 49.455 282.095,49.120 281.151,48.437 280.973 C 47.893 280.830,47.656 280.440,47.656 279.684 C 47.656 279.087,47.409 278.504,47.107 278.388 C 46.805 278.273,46.440 277.639,46.295 276.980 C 46.150 276.320,45.884 275.781,45.703 275.781 C 45.522 275.781,45.256 275.242,45.111 274.583 C 44.967 273.924,44.601 273.290,44.299 273.174 C 43.997 273.058,43.750 272.718,43.750 272.418 C 43.750 272.118,43.398 271.216,42.969 270.415 C 42.539 269.613,42.187 268.753,42.187 268.505 C 42.187 268.256,41.924 267.951,41.602 267.827 C 41.257 267.695,41.016 267.109,41.016 266.406 C 41.016 265.740,40.773 265.117,40.468 265.000 C 40.167 264.884,39.807 264.187,39.669 263.450 C 39.526 262.684,39.184 262.109,38.873 262.109 C 38.526 262.109,38.285 261.579,38.207 260.645 C 38.131 259.728,37.903 259.216,37.598 259.277 C 37.283 259.340,37.109 258.900,37.109 258.040 C 37.109 256.319,36.773 255.469,36.091 255.469 C 35.707 255.469,35.547 254.956,35.547 253.730 C 35.547 252.683,35.337 251.868,35.018 251.680 C 34.728 251.508,34.389 250.590,34.265 249.641 C 34.139 248.669,33.772 247.764,33.427 247.571 C 33.033 247.350,32.812 246.683,32.812 245.712 C 32.812 244.878,32.549 243.933,32.227 243.610 C 31.881 243.265,31.641 242.311,31.641 241.287 C 31.641 240.218,31.415 239.361,31.055 239.063 C 30.732 238.795,30.468 238.026,30.467 237.355 C 30.464 235.722,29.743 233.203,29.279 233.203 C 29.074 233.203,28.906 231.994,28.906 230.517 C 28.906 228.735,28.728 227.682,28.378 227.391 C 28.034 227.106,27.771 225.643,27.626 223.207 C 27.470 220.599,27.215 219.256,26.787 218.782 C 26.284 218.227,26.172 217.024,26.172 212.204 C 26.172 207.482,26.055 206.189,25.586 205.720 C 24.713 204.847,24.713 185.881,25.586 185.156 C 26.061 184.762,26.172 183.519,26.172 178.596 C 26.172 173.624,26.283 172.400,26.786 171.844 C 27.211 171.374,27.464 170.048,27.610 167.517 C 27.750 165.082,28.001 163.723,28.363 163.433 C 28.724 163.146,28.906 162.171,28.906 160.535 C 28.906 158.769,29.093 157.862,29.566 157.340 C 29.982 156.881,30.289 155.714,30.396 154.185 C 30.501 152.692,30.773 151.638,31.104 151.445 C 31.442 151.248,31.641 150.434,31.641 149.241 C 31.641 147.920,31.817 147.281,32.227 147.124 C 32.613 146.976,32.813 146.364,32.813 145.325 C 32.813 144.271,33.071 143.492,33.594 142.969 C 34.107 142.455,34.375 141.667,34.375 140.667 C 34.375 139.675,34.579 139.068,34.961 138.921 C 35.359 138.768,35.547 138.144,35.547 136.972 C 35.547 135.576,35.696 135.208,36.328 135.043 C 36.950 134.880,37.109 134.510,37.109 133.227 C 37.109 132.155,37.306 131.541,37.695 131.391 C 38.057 131.253,38.281 130.659,38.281 129.841 C 38.281 128.942,38.464 128.516,38.849 128.516 C 39.187 128.516,39.520 127.973,39.669 127.175 C 39.807 126.438,40.167 125.741,40.468 125.625 C 40.773 125.508,41.016 124.885,41.016 124.219 C 41.016 123.516,41.257 122.930,41.602 122.798 C 41.924 122.674,42.188 122.369,42.188 122.120 C 42.188 121.872,42.539 121.012,42.969 120.210 C 43.398 119.409,43.750 118.489,43.750 118.165 C 43.750 117.842,43.904 117.578,44.093 117.578 C 44.282 117.578,44.670 117.007,44.956 116.309 C 45.241 115.610,45.702 114.807,45.980 114.523 C 46.257 114.239,46.484 113.662,46.484 113.241 C 46.484 112.820,46.748 112.374,47.070 112.251 C 47.396 112.125,47.656 111.545,47.656 110.941 C 47.656 110.185,47.893 109.795,48.438 109.652 C 48.968 109.514,49.219 109.120,49.219 108.423 C 49.219 107.859,49.482 107.296,49.805 107.173 C 50.127 107.049,50.391 106.635,50.391 106.254 C 50.391 105.872,50.742 105.468,51.172 105.356 C 51.689 105.220,51.953 104.823,51.953 104.180 C 51.953 103.646,52.217 103.107,52.539 102.984 C 52.861 102.860,53.125 102.529,53.125 102.248 C 53.125 101.966,53.477 101.435,53.906 101.067 C 54.336 100.699,54.688 100.045,54.688 99.613 C 54.688 99.176,54.947 98.828,55.273 98.828 C 55.596 98.828,55.859 98.564,55.859 98.242 C 55.859 97.920,56.123 97.656,56.445 97.656 C 56.768 97.656,57.031 97.420,57.031 97.131 C 57.031 96.842,57.383 96.287,57.813 95.898 C 58.242 95.510,58.594 94.886,58.594 94.513 C 58.594 94.139,58.857 93.732,59.180 93.609 C 59.502 93.485,59.766 93.115,59.766 92.786 C 59.766 92.457,60.034 92.188,60.361 92.188 C 60.689 92.188,61.117 91.765,61.314 91.249 C 61.510 90.733,61.857 90.195,62.085 90.054 C 62.313 89.913,62.500 89.477,62.500 89.085 C 62.500 88.693,62.852 88.280,63.281 88.168 C 63.711 88.056,64.063 87.684,64.063 87.341 C 64.063 86.999,64.326 86.719,64.648 86.719 C 64.971 86.719,65.234 86.455,65.234 86.133 C 65.234 85.811,65.498 85.547,65.820 85.547 C 66.143 85.547,66.406 85.354,66.406 85.118 C 66.406 84.881,67.244 83.868,68.267 82.866 C 69.290 81.864,70.558 80.431,71.083 79.682 C 71.608 78.933,72.353 78.091,72.738 77.810 C 73.123 77.529,73.438 77.046,73.438 76.736 C 73.438 76.426,73.701 76.172,74.023 76.172 C 74.349 76.172,74.609 75.825,74.609 75.391 C 74.609 74.870,74.870 74.609,75.391 74.609 C 75.825 74.609,76.172 74.349,76.172 74.023 C 76.172 73.701,76.426 73.438,76.736 73.438 C 77.046 73.437,77.529 73.119,77.810 72.730 C 78.091 72.340,78.924 71.593,79.661 71.069 C 80.398 70.546,81.831 69.282,82.845 68.262 C 83.859 67.241,84.881 66.406,85.118 66.406 C 85.354 66.406,85.547 66.143,85.547 65.820 C 85.547 65.498,85.811 65.234,86.133 65.234 C 86.455 65.234,86.719 64.971,86.719 64.648 C 86.719 64.326,86.999 64.063,87.341 64.063 C 87.684 64.063,88.056 63.711,88.168 63.281 C 88.280 62.852,88.693 62.500,89.085 62.500 C 89.477 62.500,89.913 62.313,90.054 62.085 C 90.195 61.857,90.733 61.510,91.249 61.314 C 91.765 61.117,92.188 60.689,92.188 60.361 C 92.188 60.034,92.457 59.766,92.786 59.766 C 93.115 59.766,93.485 59.502,93.609 59.180 C 93.732 58.857,94.139 58.594,94.513 58.594 C 94.886 58.594,95.510 58.242,95.898 57.812 C 96.287 57.383,96.842 57.031,97.131 57.031 C 97.420 57.031,97.656 56.768,97.656 56.445 C 97.656 56.123,97.920 55.859,98.242 55.859 C 98.564 55.859,98.828 55.596,98.828 55.273 C 98.828 54.947,99.176 54.688,99.613 54.688 C 100.045 54.688,100.699 54.336,101.067 53.906 C 101.435 53.477,101.966 53.125,102.248 53.125 C 102.529 53.125,102.860 52.861,102.984 52.539 C 103.107 52.217,103.646 51.953,104.180 51.953 C 104.823 51.953,105.220 51.689,105.356 51.172 C 105.468 50.742,105.816 50.391,106.128 50.391 C 106.441 50.391,106.960 50.127,107.282 49.805 C 107.605 49.482,108.224 49.219,108.658 49.219 C 109.120 49.219,109.533 48.894,109.652 48.437 C 109.795 47.893,110.185 47.656,110.941 47.656 C 111.545 47.656,112.125 47.396,112.251 47.070 C 112.374 46.748,112.820 46.484,113.241 46.484 C 113.662 46.484,114.239 46.257,114.523 45.980 C 114.807 45.702,115.610 45.241,116.309 44.956 C 117.007 44.670,117.578 44.282,117.578 44.093 C 117.578 43.904,117.842 43.750,118.165 43.750 C 118.489 43.750,119.409 43.398,120.210 42.969 C 121.012 42.539,121.872 42.188,122.120 42.188 C 122.369 42.188,122.674 41.924,122.798 41.602 C 122.930 41.257,123.516 41.016,124.219 41.016 C 124.922 41.016,125.508 40.774,125.640 40.430 C 125.770 40.090,126.355 39.844,127.031 39.844 C 127.870 39.844,128.256 39.624,128.402 39.062 C 128.554 38.482,128.935 38.281,129.887 38.281 C 130.664 38.281,131.255 38.051,131.391 37.695 C 131.541 37.306,132.155 37.109,133.227 37.109 C 134.510 37.109,134.880 36.950,135.043 36.328 C 135.208 35.696,135.576 35.547,136.972 35.547 C 138.144 35.547,138.768 35.359,138.921 34.961 C 139.068 34.579,139.675 34.375,140.667 34.375 C 141.667 34.375,142.455 34.107,142.969 33.594 C 143.492 33.071,144.271 32.813,145.325 32.813 C 146.364 32.813,146.976 32.613,147.124 32.227 C 147.281 31.817,147.920 31.641,149.241 31.641 C 150.434 31.641,151.248 31.442,151.445 31.104 C 151.638 30.773,152.692 30.501,154.185 30.396 C 155.714 30.289,156.881 29.982,157.340 29.566 C 157.869 29.088,158.775 28.906,160.633 28.906 C 162.434 28.906,163.258 28.748,163.401 28.375 C 163.546 27.999,164.698 27.787,167.357 27.648 C 170.072 27.506,171.303 27.275,171.815 26.812 C 172.407 26.277,173.517 26.172,178.596 26.172 C 183.519 26.172,184.762 26.061,185.156 25.586 C 185.881 24.713,204.847 24.713,205.720 25.586 C 206.191 26.057,207.502 26.172,212.387 26.172 C 217.658 26.172,218.533 26.260,218.954 26.835 C 219.335 27.357,220.241 27.534,223.187 27.663 C 225.731 27.774,227.078 28.000,227.382 28.366 C 227.672 28.716,228.657 28.906,230.181 28.906 C 231.884 28.906,232.657 29.078,232.988 29.531 C 233.295 29.951,234.302 30.225,236.055 30.366 C 237.547 30.485,238.854 30.803,239.107 31.108 C 239.369 31.425,240.322 31.641,241.454 31.641 C 242.887 31.641,243.359 31.786,243.359 32.227 C 243.359 32.669,243.837 32.813,245.313 32.813 C 246.745 32.813,247.474 33.021,248.047 33.594 C 248.521 34.068,249.349 34.375,250.154 34.375 C 250.971 34.375,251.565 34.599,251.704 34.961 C 251.858 35.362,252.486 35.547,253.699 35.547 C 254.951 35.547,255.469 35.706,255.469 36.091 C 255.469 36.713,256.298 37.109,257.601 37.109 C 258.095 37.109,258.717 37.373,258.984 37.695 C 259.252 38.018,260.044 38.281,260.744 38.281 C 261.690 38.281,262.071 38.483,262.223 39.063 C 262.369 39.624,262.755 39.844,263.594 39.844 C 264.270 39.844,264.855 40.090,264.985 40.430 C 265.117 40.774,265.703 41.016,266.406 41.016 C 267.109 41.016,267.695 41.257,267.827 41.602 C 267.951 41.924,268.256 42.187,268.505 42.187 C 268.753 42.187,269.613 42.539,270.415 42.969 C 271.216 43.398,272.118 43.750,272.418 43.750 C 272.718 43.750,273.056 43.991,273.169 44.286 C 273.282 44.580,273.870 44.946,274.476 45.098 C 275.082 45.250,275.697 45.567,275.843 45.803 C 275.988 46.038,276.518 46.291,277.019 46.365 C 277.520 46.439,278.125 46.759,278.363 47.078 C 278.602 47.396,279.219 47.656,279.734 47.656 C 280.250 47.656,280.891 48.008,281.159 48.438 C 281.873 49.581,285.525 49.581,285.824 48.438 C 285.937 48.008,286.198 47.656,286.405 47.656 C 286.923 47.656,291.406 43.132,291.406 42.609 C 291.406 42.377,291.602 42.188,291.841 42.188 C 292.408 42.188,298.047 36.549,298.047 35.982 C 298.047 35.743,298.242 35.547,298.480 35.547 C 299.056 35.547,300.766 33.907,300.775 33.346 C 300.778 33.103,301.144 32.809,301.588 32.693 C 302.965 32.333,302.502 29.667,300.977 29.172 C 300.332 28.963,299.664 28.554,299.492 28.263 C 299.321 27.972,298.755 27.734,298.237 27.734 C 297.693 27.734,297.116 27.403,296.875 26.953 C 296.645 26.523,296.275 26.172,296.052 26.172 C 295.829 26.172,295.384 25.908,295.061 25.586 C 294.739 25.264,294.131 25.000,293.710 25.000 C 293.289 25.000,292.843 24.736,292.719 24.414 C 292.591 24.080,292.009 23.828,291.364 23.828 C 290.659 23.828,290.234 23.624,290.234 23.284 C 290.234 22.694,289.416 22.266,288.291 22.266 C 287.902 22.266,287.482 22.002,287.359 21.680 C 287.230 21.344,286.647 21.094,285.995 21.094 C 285.185 21.094,284.798 20.868,284.652 20.312 C 284.504 19.744,284.120 19.531,283.240 19.531 C 282.426 19.531,282.031 19.340,282.031 18.945 C 282.031 18.536,281.619 18.359,280.664 18.359 C 279.756 18.359,279.297 18.177,279.297 17.815 C 279.297 17.226,278.479 16.797,277.354 16.797 C 276.964 16.797,276.545 16.533,276.421 16.211 C 276.292 15.875,275.709 15.625,275.054 15.625 C 274.426 15.625,273.817 15.378,273.701 15.076 C 273.585 14.774,272.917 14.401,272.216 14.247 C 271.516 14.093,270.700 13.725,270.404 13.429 C 270.108 13.133,269.282 12.891,268.569 12.891 C 267.776 12.891,267.184 12.663,267.046 12.305 C 266.893 11.906,266.269 11.719,265.097 11.719 C 263.701 11.719,263.333 11.570,263.168 10.938 C 263.013 10.346,262.635 10.156,261.608 10.156 C 260.862 10.156,260.033 9.893,259.766 9.570 C 259.474 9.219,258.620 8.984,257.630 8.984 C 256.477 8.984,255.768 8.749,255.273 8.203 C 254.778 7.656,254.070 7.422,252.911 7.422 C 251.800 7.422,251.182 7.229,251.031 6.836 C 250.877 6.434,250.249 6.250,249.036 6.250 C 247.786 6.250,247.036 6.020,246.484 5.469 C 245.906 4.890,245.171 4.684,243.652 4.675 C 242.472 4.668,241.280 4.419,240.843 4.089 C 240.364 3.727,239.185 3.516,237.640 3.516 C 235.760 3.516,235.111 3.365,234.829 2.862 C 234.544 2.351,233.706 2.169,231.001 2.030 C 228.986 1.926,227.217 1.628,226.769 1.316 C 226.233 0.944,224.717 0.781,221.788 0.781 C 219.242 0.781,217.578 0.627,217.578 0.391 C 217.578 0.135,209.766 0.000,194.922 0.000 C 180.078 0.000,172.266 0.135,172.266 0.391 M380.469 9.570 C 380.469 9.893,380.205 10.156,379.883 10.156 C 379.557 10.156,379.297 10.503,379.297 10.938 C 379.297 11.458,379.036 11.719,378.516 11.719 C 378.082 11.719,377.734 11.979,377.734 12.305 C 377.734 12.627,377.471 12.891,377.148 12.891 C 376.826 12.891,376.563 13.134,376.563 13.431 C 376.563 13.728,376.211 14.063,375.781 14.176 C 375.352 14.288,375.000 14.660,375.000 15.002 C 375.000 15.345,374.736 15.625,374.414 15.625 C 374.092 15.625,373.828 15.889,373.828 16.211 C 373.828 16.533,373.670 16.797,373.476 16.797 C 373.011 16.797,364.453 25.348,364.453 25.813 C 364.453 26.010,364.264 26.172,364.032 26.172 C 363.528 26.172,360.547 29.206,360.547 29.719 C 360.547 29.917,360.396 30.078,360.211 30.078 C 359.737 30.078,350.781 38.986,350.781 39.457 C 350.781 39.670,350.601 39.844,350.381 39.844 C 349.894 39.844,345.313 44.472,345.313 44.963 C 345.313 45.155,345.153 45.313,344.958 45.313 C 344.488 45.312,321.484 68.306,321.484 68.776 C 321.484 68.977,321.329 69.141,321.140 69.141 C 320.670 69.141,316.016 73.768,316.016 74.235 C 316.016 74.441,315.868 74.609,315.687 74.609 C 315.186 74.609,311.719 77.988,311.719 78.477 C 311.719 78.713,311.455 78.906,311.133 78.906 C 310.811 78.906,310.547 79.170,310.547 79.492 C 310.547 79.814,310.354 80.078,310.118 80.078 C 309.629 80.078,306.250 83.545,306.250 84.047 C 306.250 84.227,306.082 84.375,305.876 84.375 C 305.409 84.375,300.781 89.029,300.781 89.499 C 300.781 89.689,300.618 89.844,300.419 89.844 C 299.945 89.844,282.422 107.366,282.422 107.840 C 282.422 108.040,282.267 108.203,282.077 108.203 C 281.607 108.203,276.953 112.831,276.953 113.298 C 276.953 113.504,276.805 113.672,276.625 113.672 C 276.123 113.672,272.656 117.051,272.656 117.539 C 272.656 117.776,272.393 117.969,272.070 117.969 C 271.748 117.969,271.484 118.232,271.484 118.555 C 271.484 118.877,271.221 119.141,270.898 119.141 C 270.576 119.141,270.313 119.404,270.313 119.727 C 270.313 120.049,270.150 120.313,269.952 120.313 C 269.483 120.313,267.188 122.608,267.188 123.077 C 267.188 123.275,266.924 123.438,266.602 123.438 C 266.279 123.438,266.016 123.701,266.016 124.023 C 266.016 124.346,265.848 124.609,265.643 124.609 C 265.176 124.609,261.719 128.089,261.719 128.559 C 261.719 128.750,261.455 128.906,261.133 128.906 C 260.811 128.906,260.547 129.170,260.547 129.492 C 260.547 129.814,260.383 130.078,260.184 130.078 C 259.709 130.078,243.359 146.428,243.359 146.903 C 243.359 147.102,243.204 147.266,243.015 147.266 C 242.545 147.266,237.891 151.893,237.891 152.360 C 237.891 152.566,237.743 152.734,237.562 152.734 C 237.061 152.734,233.594 156.113,233.594 156.602 C 233.594 156.838,233.330 157.031,233.008 157.031 C 232.686 157.031,232.422 157.295,232.422 157.617 C 232.422 157.939,232.158 158.203,231.836 158.203 C 231.514 158.203,231.250 158.467,231.250 158.789 C 231.250 159.111,231.088 159.375,230.889 159.375 C 230.420 159.375,228.125 161.670,228.125 162.139 C 228.125 162.338,227.861 162.500,227.539 162.500 C 227.217 162.500,226.953 162.764,226.953 163.086 C 226.953 163.408,226.689 163.672,226.367 163.672 C 226.045 163.672,225.781 163.936,225.781 164.258 C 225.781 164.580,225.619 164.844,225.421 164.844 C 224.952 164.844,222.656 167.139,222.656 167.608 C 222.656 167.806,222.393 167.969,222.070 167.969 C 221.748 167.969,221.484 168.232,221.484 168.555 C 221.484 168.877,221.221 169.141,220.898 169.141 C 220.576 169.141,220.313 169.404,220.313 169.727 C 220.313 170.049,220.119 170.313,219.883 170.313 C 219.395 170.312,216.016 173.780,216.016 174.281 C 216.016 174.462,215.847 174.609,215.642 174.609 C 215.174 174.609,210.547 179.264,210.547 179.734 C 210.547 179.923,210.377 180.078,210.170 180.078 C 209.678 180.078,204.297 185.459,204.297 185.951 C 204.297 186.158,204.142 186.328,203.952 186.328 C 203.482 186.328,198.828 190.956,198.828 191.423 C 198.828 191.629,198.680 191.797,198.500 191.797 C 197.998 191.797,194.531 195.176,194.531 195.664 C 194.531 195.901,194.268 196.094,193.945 196.094 C 193.623 196.094,193.359 196.357,193.359 196.680 C 193.359 197.002,193.096 197.266,192.773 197.266 C 192.451 197.266,192.188 197.529,192.188 197.852 C 192.188 198.174,192.025 198.438,191.827 198.438 C 191.358 198.438,189.063 200.733,189.063 201.202 C 189.063 201.400,188.799 201.563,188.477 201.563 C 188.154 201.563,187.891 201.826,187.891 202.148 C 187.891 202.471,187.627 202.734,187.305 202.734 C 186.982 202.734,186.719 202.998,186.719 203.320 C 186.719 203.643,186.556 203.906,186.358 203.906 C 185.889 203.906,183.594 206.202,183.594 206.671 C 183.594 206.869,183.330 207.031,183.008 207.031 C 182.686 207.031,182.422 207.295,182.422 207.617 C 182.422 207.939,182.158 208.203,181.836 208.203 C 181.514 208.203,181.250 208.467,181.250 208.789 C 181.250 209.111,181.050 209.375,180.807 209.375 C 180.285 209.375,178.516 211.201,178.516 211.739 C 178.516 211.943,178.252 212.109,177.930 212.109 C 177.604 212.109,177.344 212.457,177.344 212.891 C 177.344 213.411,177.083 213.672,176.563 213.672 C 176.128 213.672,175.781 213.932,175.781 214.258 C 175.781 214.580,175.538 214.844,175.241 214.844 C 174.944 214.844,174.609 215.195,174.496 215.625 C 174.384 216.055,174.012 216.406,173.669 216.406 C 173.327 216.406,173.047 216.670,173.047 216.992 C 173.047 217.314,172.783 217.578,172.461 217.578 C 172.135 217.578,171.875 217.925,171.875 218.359 C 171.875 218.880,171.615 219.141,171.094 219.141 C 170.660 219.141,170.313 219.401,170.313 219.727 C 170.313 220.049,170.049 220.313,169.727 220.313 C 169.404 220.313,169.141 220.556,169.141 220.853 C 169.141 221.150,168.789 221.485,168.359 221.598 C 167.930 221.710,167.578 222.082,167.578 222.424 C 167.578 222.767,167.314 223.047,166.992 223.047 C 166.670 223.047,166.406 223.311,166.406 223.633 C 166.406 223.955,166.143 224.219,165.820 224.219 C 165.495 224.219,165.234 224.566,165.234 225.000 C 165.234 225.521,164.974 225.781,164.453 225.781 C 164.019 225.781,163.672 226.042,163.672 226.367 C 163.672 226.689,163.429 226.953,163.131 226.953 C 162.834 226.953,162.499 227.305,162.387 227.734 C 162.274 228.164,161.902 228.516,161.560 228.516 C 161.218 228.516,160.938 228.779,160.938 229.102 C 160.938 229.424,160.674 229.688,160.352 229.688 C 160.026 229.688,159.766 230.035,159.766 230.469 C 159.766 230.990,159.505 231.250,158.984 231.250 C 158.550 231.250,158.203 231.510,158.203 231.836 C 158.203 232.158,157.939 232.422,157.617 232.422 C 157.295 232.422,157.031 232.665,157.031 232.962 C 157.031 233.259,156.680 233.595,156.250 233.707 C 155.820 233.819,155.469 234.191,155.469 234.534 C 155.469 234.876,155.205 235.156,154.883 235.156 C 154.561 235.156,154.297 235.420,154.297 235.742 C 154.297 236.064,154.033 236.328,153.711 236.328 C 153.385 236.328,153.125 236.675,153.125 237.109 C 153.125 237.630,152.865 237.891,152.344 237.891 C 151.910 237.891,151.563 238.151,151.563 238.477 C 151.563 239.927,149.803 238.439,140.479 229.102 C 135.008 223.623,130.342 219.141,130.110 219.141 C 129.878 219.141,129.688 218.945,129.688 218.706 C 129.688 218.467,128.389 216.973,126.802 215.386 C 125.215 213.799,123.721 212.500,123.482 212.500 C 123.243 212.500,123.047 212.310,123.047 212.078 C 123.047 211.528,118.550 207.031,118.000 207.031 C 117.768 207.031,117.578 206.839,117.578 206.605 C 117.578 205.277,89.879 178.516,88.504 178.516 C 87.370 178.516,87.109 178.662,87.109 179.297 C 87.109 179.818,86.849 180.078,86.328 180.078 C 85.894 180.078,85.547 180.339,85.547 180.664 C 85.547 180.986,85.283 181.250,84.961 181.250 C 84.639 181.250,84.375 181.502,84.375 181.810 C 84.375 182.117,84.023 182.481,83.594 182.617 C 83.164 182.754,82.813 183.117,82.813 183.425 C 82.813 183.733,82.549 183.984,82.227 183.984 C 81.904 183.984,81.641 184.152,81.641 184.357 C 81.641 184.842,79.764 186.719,79.279 186.719 C 79.074 186.719,78.906 186.982,78.906 187.305 C 78.906 187.627,78.654 187.891,78.347 187.891 C 78.039 187.891,77.675 188.242,77.539 188.672 C 77.403 189.102,77.039 189.453,76.731 189.453 C 76.424 189.453,76.172 189.717,76.172 190.039 C 76.172 190.361,75.908 190.625,75.586 190.625 C 75.260 190.625,75.000 190.972,75.000 191.406 C 75.000 191.927,74.740 192.188,74.219 192.188 C 73.785 192.188,73.438 192.448,73.438 192.773 C 73.438 193.096,73.174 193.359,72.852 193.359 C 72.529 193.359,72.266 193.611,72.266 193.919 C 72.266 194.227,71.914 194.590,71.484 194.727 C 70.454 195.054,70.309 198.438,71.326 198.438 C 71.668 198.438,72.040 198.789,72.152 199.219 C 72.265 199.648,72.504 200.000,72.684 200.000 C 73.135 200.000,75.000 201.902,75.000 202.362 C 75.000 202.567,75.264 202.734,75.586 202.734 C 75.908 202.734,76.172 202.998,76.172 203.320 C 76.172 203.643,76.371 203.906,76.615 203.906 C 77.137 203.906,78.906 205.732,78.906 206.270 C 78.906 206.474,79.186 206.641,79.529 206.641 C 79.871 206.641,80.243 206.992,80.356 207.422 C 80.468 207.852,80.803 208.203,81.100 208.203 C 81.397 208.203,81.641 208.467,81.641 208.789 C 81.641 209.111,81.904 209.375,82.227 209.375 C 82.549 209.375,82.813 209.639,82.813 209.961 C 82.813 210.283,83.093 210.547,83.435 210.547 C 83.777 210.547,84.149 210.898,84.262 211.328 C 84.374 211.758,84.612 212.109,84.791 212.109 C 85.294 212.109,87.109 213.903,87.109 214.400 C 87.109 214.644,87.373 214.844,87.695 214.844 C 88.018 214.844,88.281 215.107,88.281 215.430 C 88.281 215.752,88.449 216.016,88.654 216.016 C 89.139 216.016,91.016 217.893,91.016 218.377 C 91.016 218.582,91.296 218.750,91.638 218.750 C 91.981 218.750,92.353 219.102,92.465 219.531 C 92.577 219.961,92.912 220.313,93.210 220.313 C 93.507 220.313,93.750 220.576,93.750 220.898 C 93.750 221.221,93.970 221.487,94.238 221.491 C 94.834 221.499,96.484 223.185,96.484 223.786 C 96.484 224.024,96.748 224.219,97.070 224.219 C 97.393 224.219,97.656 224.462,97.656 224.759 C 97.656 225.056,98.008 225.391,98.438 225.504 C 98.867 225.616,99.219 225.988,99.219 226.331 C 99.219 226.673,99.464 226.953,99.763 226.953 C 100.062 226.953,100.408 227.217,100.532 227.539 C 100.656 227.861,101.026 228.125,101.355 228.125 C 101.684 228.125,101.953 228.394,101.953 228.723 C 101.953 229.052,102.217 229.423,102.539 229.546 C 102.861 229.670,103.125 229.995,103.125 230.270 C 103.125 230.544,103.477 230.860,103.906 230.973 C 104.336 231.085,104.688 231.457,104.688 231.799 C 104.688 232.142,104.951 232.422,105.273 232.422 C 105.596 232.422,105.859 232.665,105.859 232.962 C 105.859 233.259,106.211 233.595,106.641 233.707 C 107.070 233.819,107.422 234.191,107.422 234.534 C 107.422 234.876,107.686 235.156,108.008 235.156 C 108.330 235.156,108.594 235.420,108.594 235.742 C 108.594 236.064,108.857 236.328,109.180 236.328 C 109.502 236.328,109.766 236.571,109.766 236.869 C 109.766 237.166,110.117 237.501,110.547 237.613 C 110.977 237.726,111.328 238.098,111.328 238.440 C 111.328 238.782,111.496 239.063,111.701 239.063 C 112.186 239.063,114.063 240.939,114.063 241.424 C 114.063 241.629,114.326 241.797,114.648 241.797 C 114.971 241.797,115.234 242.061,115.234 242.383 C 115.234 242.705,115.434 242.969,115.678 242.969 C 116.175 242.969,117.969 244.784,117.969 245.287 C 117.969 245.466,118.320 245.704,118.750 245.816 C 119.180 245.929,119.531 246.301,119.531 246.643 C 119.531 246.985,119.795 247.266,120.117 247.266 C 120.439 247.266,120.703 247.529,120.703 247.852 C 120.703 248.174,120.967 248.438,121.289 248.438 C 121.611 248.438,121.875 248.681,121.875 248.978 C 121.875 249.275,122.227 249.610,122.656 249.723 C 123.086 249.835,123.438 250.207,123.438 250.549 C 123.438 250.892,123.604 251.172,123.808 251.172 C 124.346 251.172,126.172 252.941,126.172 253.463 C 126.172 253.707,126.436 253.906,126.758 253.906 C 127.080 253.906,127.344 254.170,127.344 254.492 C 127.344 254.814,127.512 255.078,127.717 255.078 C 128.176 255.078,130.078 256.944,130.078 257.394 C 130.078 257.574,130.430 257.813,130.859 257.926 C 131.289 258.038,131.641 258.410,131.641 258.752 C 131.641 259.095,131.904 259.375,132.227 259.375 C 132.549 259.375,132.813 259.639,132.813 259.961 C 132.813 260.283,133.076 260.547,133.398 260.547 C 133.721 260.547,133.984 260.790,133.984 261.087 C 133.984 261.384,134.336 261.720,134.766 261.832 C 135.195 261.944,135.547 262.316,135.547 262.659 C 135.547 263.001,135.811 263.281,136.133 263.281 C 136.455 263.281,136.719 263.524,136.719 263.822 C 136.719 264.119,137.070 264.454,137.500 264.566 C 137.930 264.679,138.281 265.051,138.281 265.393 C 138.281 265.735,138.545 266.016,138.867 266.016 C 139.189 266.016,139.453 266.279,139.453 266.602 C 139.453 266.927,139.800 267.188,140.234 267.188 C 140.676 267.188,141.016 267.448,141.016 267.786 C 141.016 268.115,141.279 268.485,141.602 268.609 C 141.924 268.732,142.187 269.058,142.187 269.332 C 142.187 269.606,142.539 269.923,142.969 270.035 C 143.398 270.147,143.750 270.519,143.750 270.862 C 143.750 271.204,144.014 271.484,144.336 271.484 C 144.658 271.484,144.922 271.728,144.922 272.025 C 144.922 272.322,145.273 272.657,145.703 272.769 C 146.133 272.882,146.484 273.254,146.484 273.596 C 146.484 273.939,146.748 274.219,147.070 274.219 C 147.393 274.219,147.656 274.482,147.656 274.805 C 147.656 275.127,147.832 275.391,148.047 275.391 C 148.262 275.391,148.785 275.738,149.210 276.163 C 150.133 277.086,150.971 276.858,152.333 275.314 C 152.864 274.712,153.524 274.219,153.798 274.219 C 154.072 274.219,154.297 274.035,154.297 273.809 C 154.297 273.274,180.305 247.266,180.841 247.266 C 181.066 247.266,181.250 247.082,181.250 246.858 C 181.250 246.327,192.420 235.156,192.952 235.156 C 193.176 235.156,193.359 234.972,193.359 234.747 C 193.359 234.212,219.368 208.203,219.903 208.203 C 220.128 208.203,220.313 208.020,220.313 207.796 C 220.313 207.572,222.854 204.847,225.960 201.741 C 229.066 198.635,231.791 196.094,232.015 196.094 C 232.239 196.094,232.422 195.904,232.422 195.671 C 232.422 195.327,260.883 166.710,269.374 158.518 C 270.642 157.295,280.253 147.715,290.731 137.229 C 301.209 126.743,309.998 117.960,310.262 117.710 C 323.691 105.018,400.000 27.573,400.000 26.637 C 400.000 25.572,399.202 24.755,398.340 24.938 C 398.179 24.972,398.047 24.832,398.047 24.627 C 398.047 24.080,393.536 19.531,392.993 19.531 C 392.740 19.531,392.628 19.375,392.746 19.185 C 393.012 18.755,392.017 17.879,391.663 18.233 C 391.522 18.374,391.406 18.261,391.406 17.982 C 391.406 17.347,388.157 14.063,387.528 14.063 C 387.273 14.063,387.160 13.907,387.277 13.716 C 387.543 13.286,386.548 12.411,386.195 12.764 C 386.053 12.905,385.938 12.838,385.938 12.614 C 385.938 11.543,382.972 8.984,381.730 8.984 C 380.869 8.984,380.469 9.170,380.469 9.570 " stroke="none" fill="#7ed321" fill-rule="evenodd"></path><path id="path3" d="M217.578 0.391 C 217.578 0.605,217.842 0.781,218.164 0.781 C 218.486 0.781,218.750 0.605,218.750 0.391 C 218.750 0.176,218.486 0.000,218.164 0.000 C 217.842 0.000,217.578 0.176,217.578 0.391 M154.948 2.604 C 154.473 3.079,154.678 3.495,155.273 3.266 C 155.596 3.143,155.859 2.884,155.859 2.693 C 155.859 2.283,155.321 2.231,154.948 2.604 M383.594 9.351 C 383.594 9.533,384.121 10.248,384.766 10.938 C 385.410 11.627,385.938 12.378,385.938 12.606 C 385.938 12.834,386.053 12.905,386.195 12.764 C 386.548 12.411,387.543 13.286,387.277 13.716 C 387.160 13.907,387.249 14.063,387.477 14.063 C 388.330 14.063,387.827 13.218,385.742 11.150 C 384.561 9.977,383.594 9.168,383.594 9.351 M375.001 14.256 C 373.707 15.634,374.181 15.775,375.513 14.408 C 376.117 13.788,376.455 13.281,376.265 13.281 C 376.074 13.281,375.505 13.720,375.001 14.256 M388.672 14.631 C 388.672 14.970,390.709 16.843,390.885 16.667 C 390.983 16.569,390.605 16.031,390.045 15.471 C 389.067 14.493,388.672 14.251,388.672 14.631 M391.406 17.992 C 391.406 18.219,391.562 18.309,391.753 18.191 C 392.145 17.949,393.074 18.906,392.755 19.225 C 392.640 19.339,392.906 19.526,393.344 19.640 C 394.358 19.906,394.344 19.791,393.217 18.575 C 392.262 17.544,391.406 17.269,391.406 17.992 M282.031 18.945 C 282.031 19.268,282.316 19.531,282.665 19.531 C 283.184 19.531,283.211 19.425,282.813 18.945 C 282.545 18.623,282.260 18.359,282.179 18.359 C 282.098 18.359,282.031 18.623,282.031 18.945 M396.484 22.585 C 396.484 22.835,396.836 23.260,397.266 23.528 C 397.695 23.796,398.047 24.248,398.047 24.531 C 398.047 24.814,398.211 24.945,398.411 24.821 C 398.611 24.698,398.885 24.775,399.019 24.994 C 399.154 25.212,399.437 25.391,399.648 25.391 C 400.038 25.391,399.471 24.763,397.559 23.076 C 396.968 22.556,396.484 22.334,396.484 22.585 M364.669 24.587 C 364.291 25.004,364.074 25.575,364.187 25.856 C 364.320 26.189,364.402 26.128,364.422 25.684 C 364.439 25.308,364.610 25.000,364.802 25.000 C 364.994 25.000,365.252 24.736,365.376 24.414 C 365.676 23.631,365.493 23.676,364.669 24.587 M84.816 31.992 C 84.521 32.179,84.345 32.491,84.425 32.686 C 84.505 32.881,84.878 32.725,85.254 32.340 C 85.971 31.606,85.729 31.414,84.816 31.992 M80.729 35.026 C 80.280 35.476,80.445 35.938,81.055 35.938 C 81.377 35.938,81.641 35.674,81.641 35.352 C 81.641 34.742,81.179 34.577,80.729 35.026 M131.429 37.526 C 131.288 37.755,131.266 38.036,131.380 38.151 C 131.660 38.431,132.422 37.938,132.422 37.477 C 132.422 36.978,131.747 37.011,131.429 37.526 M350.849 38.404 C 349.926 39.387,349.780 39.844,350.391 39.844 C 350.605 39.844,350.781 39.602,350.781 39.305 C 350.781 39.009,351.177 38.491,351.660 38.154 C 352.144 37.817,352.350 37.532,352.119 37.520 C 351.888 37.509,351.316 37.907,350.849 38.404 M389.646 38.284 C 388.648 39.387,389.073 39.490,390.123 38.399 C 390.598 37.904,390.845 37.500,390.672 37.500 C 390.498 37.500,390.036 37.853,389.646 38.284 M348.048 41.209 C 346.754 42.587,347.228 42.728,348.560 41.362 C 349.164 40.742,349.502 40.234,349.311 40.234 C 349.120 40.234,348.552 40.673,348.048 41.209 M386.912 41.018 C 385.909 42.126,386.334 42.216,387.464 41.134 C 387.982 40.639,388.229 40.234,388.013 40.234 C 387.797 40.234,387.302 40.587,386.912 41.018 M384.178 43.752 C 383.179 44.856,383.604 44.958,384.654 43.867 C 385.130 43.373,385.377 42.969,385.203 42.969 C 385.029 42.969,384.568 43.321,384.178 43.752 M377.537 50.393 C 376.538 51.496,376.963 51.599,378.013 50.508 C 378.489 50.014,378.736 49.609,378.562 49.609 C 378.388 49.609,377.927 49.962,377.537 50.393 M335.939 53.319 C 334.645 54.697,335.118 54.838,336.450 53.471 C 337.055 52.851,337.393 52.344,337.202 52.344 C 337.011 52.344,336.443 52.783,335.939 53.319 M372.068 55.862 C 371.070 56.965,371.495 57.068,372.545 55.977 C 373.020 55.483,373.267 55.078,373.093 55.078 C 372.920 55.078,372.458 55.431,372.068 55.862 M365.428 62.502 C 364.429 63.606,364.854 63.708,365.904 62.617 C 366.380 62.123,366.627 61.719,366.453 61.719 C 366.279 61.719,365.818 62.071,365.428 62.502 M88.159 63.317 C 87.954 64.101,87.975 64.107,88.699 63.452 C 89.596 62.640,89.628 62.500,88.913 62.500 C 88.616 62.500,88.276 62.868,88.159 63.317 M323.830 65.428 C 322.535 66.806,323.009 66.947,324.341 65.580 C 324.945 64.960,325.284 64.453,325.093 64.453 C 324.902 64.453,324.333 64.892,323.830 65.428 M362.693 65.237 C 362.303 65.668,362.058 66.095,362.149 66.185 C 362.239 66.276,362.694 65.923,363.159 65.402 C 363.623 64.880,363.868 64.453,363.703 64.453 C 363.538 64.453,363.083 64.806,362.693 65.237 M359.959 67.971 C 358.960 69.075,359.385 69.177,360.435 68.086 C 360.911 67.592,361.158 67.188,360.984 67.188 C 360.810 67.188,360.349 67.540,359.959 67.971 M311.787 77.467 C 310.863 78.449,310.718 78.906,311.328 78.906 C 311.543 78.906,311.719 78.664,311.719 78.368 C 311.719 78.072,312.114 77.554,312.598 77.217 C 313.081 76.879,313.287 76.594,313.056 76.583 C 312.825 76.572,312.254 76.969,311.787 77.467 M350.584 77.346 C 350.194 77.777,349.949 78.204,350.039 78.295 C 350.130 78.385,350.584 78.033,351.049 77.511 C 351.514 76.989,351.759 76.563,351.593 76.563 C 351.428 76.563,350.974 76.915,350.584 77.346 M71.578 78.901 C 70.992 79.840,70.973 80.078,71.484 80.078 C 71.699 80.078,71.875 79.823,71.875 79.512 C 71.875 79.200,72.183 78.766,72.559 78.547 C 73.101 78.231,73.120 78.146,72.653 78.137 C 72.328 78.130,71.845 78.474,71.578 78.901 M308.986 80.272 C 308.482 80.808,308.173 81.351,308.300 81.477 C 308.427 81.604,308.727 81.341,308.966 80.893 C 309.206 80.445,309.660 80.078,309.975 80.078 C 310.289 80.078,310.547 79.902,310.547 79.688 C 310.547 79.026,309.944 79.251,308.986 80.272 M347.849 80.081 C 346.847 81.189,347.272 81.278,348.402 80.197 C 348.919 79.702,349.166 79.297,348.951 79.297 C 348.735 79.297,348.239 79.650,347.849 80.081 M35.026 80.729 C 34.577 81.179,34.742 81.641,35.352 81.641 C 35.674 81.641,35.938 81.377,35.938 81.055 C 35.938 80.445,35.476 80.280,35.026 80.729 M31.869 85.017 C 31.527 85.908,31.719 85.930,32.520 85.091 C 33.040 84.546,33.073 84.375,32.659 84.375 C 32.360 84.375,32.004 84.664,31.869 85.017 M63.184 88.160 C 62.808 88.258,62.500 88.617,62.500 88.956 C 62.500 89.490,62.606 89.478,63.281 88.867 C 63.946 88.266,64.303 87.779,63.965 87.936 C 63.911 87.961,63.560 88.062,63.184 88.160 M338.474 89.456 C 337.476 90.559,337.901 90.661,338.951 89.571 C 339.427 89.076,339.674 88.672,339.500 88.672 C 339.326 88.672,338.864 89.025,338.474 89.456 M296.876 92.381 C 295.582 93.759,296.056 93.900,297.388 92.533 C 297.992 91.913,298.330 91.406,298.140 91.406 C 297.949 91.406,297.380 91.845,296.876 92.381 M335.740 92.190 C 334.737 93.298,335.162 93.387,336.292 92.306 C 336.810 91.811,337.057 91.406,336.841 91.406 C 336.626 91.406,336.130 91.759,335.740 92.190 M58.984 93.750 C 58.675 93.941,58.551 94.228,58.709 94.386 C 58.868 94.545,59.202 94.469,59.453 94.219 C 60.043 93.629,59.714 93.299,58.984 93.750 M333.006 94.924 C 332.007 96.028,332.432 96.130,333.482 95.039 C 333.958 94.545,334.205 94.141,334.031 94.141 C 333.857 94.141,333.396 94.493,333.006 94.924 M326.365 101.565 C 325.366 102.668,325.791 102.771,326.842 101.680 C 327.317 101.186,327.564 100.781,327.390 100.781 C 327.216 100.781,326.755 101.134,326.365 101.565 M284.767 104.491 C 283.473 105.869,283.946 106.009,285.278 104.643 C 285.883 104.023,286.221 103.516,286.030 103.516 C 285.839 103.516,285.271 103.954,284.767 104.491 M323.631 104.299 C 323.241 104.730,322.996 105.157,323.086 105.248 C 323.177 105.338,323.631 104.986,324.096 104.464 C 324.561 103.942,324.806 103.516,324.640 103.516 C 324.475 103.516,324.021 103.868,323.631 104.299 M320.896 107.034 C 319.898 108.137,320.323 108.240,321.373 107.149 C 321.848 106.654,322.095 106.250,321.922 106.250 C 321.748 106.250,321.286 106.603,320.896 107.034 M49.398 107.448 C 49.256 107.677,49.234 107.958,49.349 108.073 C 49.629 108.353,50.391 107.860,50.391 107.399 C 50.391 106.900,49.716 106.933,49.398 107.448 M374.219 114.238 C 374.219 114.334,374.658 114.887,375.195 115.467 C 375.732 116.046,376.172 116.313,376.172 116.060 C 376.172 115.807,375.908 115.499,375.586 115.376 C 375.264 115.252,375.000 114.906,375.000 114.607 C 375.000 114.307,374.824 114.063,374.609 114.063 C 374.395 114.063,374.219 114.141,374.219 114.238 M272.724 116.529 C 271.801 117.512,271.655 117.969,272.266 117.969 C 272.480 117.969,272.656 117.727,272.656 117.430 C 272.656 117.134,273.052 116.616,273.535 116.279 C 274.019 115.942,274.225 115.657,273.994 115.645 C 273.763 115.634,273.191 116.032,272.724 116.529 M311.521 116.409 C 311.131 116.840,310.886 117.266,310.977 117.357 C 311.068 117.448,311.522 117.095,311.987 116.574 C 312.451 116.052,312.696 115.625,312.531 115.625 C 312.366 115.625,311.911 115.978,311.521 116.409 M308.787 119.143 C 307.784 120.251,308.209 120.341,309.339 119.259 C 309.857 118.764,310.104 118.359,309.888 118.359 C 309.672 118.359,309.177 118.712,308.787 119.143 M265.234 124.023 C 264.836 124.503,264.863 124.609,265.382 124.609 C 265.730 124.609,266.016 124.346,266.016 124.023 C 266.016 123.701,265.949 123.438,265.868 123.438 C 265.787 123.438,265.502 123.701,265.234 124.023 M299.412 128.518 C 298.413 129.621,298.838 129.724,299.888 128.633 C 300.364 128.139,300.611 127.734,300.437 127.734 C 300.263 127.734,299.802 128.087,299.412 128.518 M380.469 130.269 C 380.469 130.409,380.751 130.807,381.097 131.153 C 381.674 131.730,381.714 131.722,381.585 131.059 C 381.456 130.392,380.469 129.693,380.469 130.269 M257.814 131.444 C 256.520 132.822,256.993 132.963,258.325 131.596 C 258.930 130.976,259.268 130.469,259.077 130.469 C 258.886 130.469,258.318 130.908,257.814 131.444 M296.678 131.252 C 295.675 132.360,296.100 132.450,297.230 131.369 C 297.747 130.874,297.994 130.469,297.779 130.469 C 297.563 130.469,297.068 130.821,296.678 131.252 M37.289 131.667 C 37.147 131.896,37.125 132.177,37.240 132.292 C 37.519 132.571,38.281 132.078,38.281 131.618 C 38.281 131.118,37.607 131.152,37.289 131.667 M294.409 133.517 C 293.832 134.120,293.359 134.734,293.359 134.881 C 293.359 135.029,293.887 134.597,294.531 133.923 C 295.629 132.774,295.875 132.422,295.581 132.422 C 295.514 132.422,294.986 132.915,294.409 133.517 M287.303 140.627 C 286.304 141.731,286.729 141.833,287.779 140.742 C 288.255 140.248,288.502 139.844,288.328 139.844 C 288.154 139.844,287.693 140.196,287.303 140.627 M245.705 143.553 C 244.410 144.931,244.884 145.072,246.216 143.705 C 246.820 143.085,247.159 142.578,246.968 142.578 C 246.777 142.578,246.208 143.017,245.705 143.553 M284.711 143.326 C 284.204 143.737,283.880 144.164,283.990 144.276 C 284.101 144.387,284.603 144.050,285.105 143.528 C 286.199 142.392,285.993 142.286,284.711 143.326 M281.834 146.096 C 280.835 147.200,281.260 147.302,282.310 146.211 C 282.786 145.717,283.033 145.313,282.859 145.313 C 282.685 145.313,282.224 145.665,281.834 146.096 M359.003 151.367 C 358.990 152.118,359.723 152.936,360.049 152.536 C 360.222 152.323,360.291 152.190,360.201 152.240 C 360.112 152.290,359.807 152.027,359.524 151.654 C 359.241 151.281,359.006 151.152,359.003 151.367 M2.604 154.948 C 2.231 155.321,2.283 155.859,2.693 155.859 C 2.884 155.859,3.143 155.596,3.266 155.273 C 3.495 154.678,3.079 154.473,2.604 154.948 M233.662 155.592 C 232.738 156.574,232.593 157.031,233.203 157.031 C 233.418 157.031,233.594 156.789,233.594 156.493 C 233.594 156.197,233.989 155.679,234.473 155.342 C 234.956 155.004,235.162 154.719,234.931 154.708 C 234.700 154.697,234.129 155.094,233.662 155.592 M272.459 155.471 C 272.069 155.902,271.824 156.329,271.914 156.420 C 272.005 156.510,272.459 156.158,272.924 155.636 C 273.389 155.114,273.634 154.688,273.468 154.688 C 273.303 154.688,272.849 155.040,272.459 155.471 M226.172 163.086 C 225.774 163.566,225.800 163.672,226.319 163.672 C 226.668 163.672,226.953 163.408,226.953 163.086 C 226.953 162.764,226.887 162.500,226.806 162.500 C 226.725 162.500,226.439 162.764,226.172 163.086 M28.019 163.517 C 27.863 163.674,27.734 164.072,27.734 164.401 C 27.734 164.841,27.850 164.884,28.169 164.565 C 28.408 164.326,28.536 163.929,28.454 163.682 C 28.371 163.435,28.176 163.361,28.019 163.517 M361.719 163.760 C 361.719 164.473,362.411 165.063,362.796 164.678 C 362.930 164.544,362.742 164.137,362.379 163.774 C 361.770 163.165,361.719 163.164,361.719 163.760 M218.751 170.506 C 218.248 171.043,217.939 171.585,218.066 171.712 C 218.192 171.838,218.492 171.575,218.732 171.127 C 218.972 170.679,219.426 170.313,219.740 170.313 C 220.055 170.313,220.313 170.137,220.313 169.922 C 220.313 169.260,219.710 169.486,218.751 170.506 M257.615 170.315 C 256.612 171.423,257.037 171.512,258.167 170.431 C 258.685 169.936,258.932 169.531,258.716 169.531 C 258.501 169.531,258.005 169.884,257.615 170.315 M255.347 172.580 C 254.769 173.183,254.297 173.796,254.297 173.944 C 254.297 174.091,254.824 173.660,255.469 172.985 C 256.566 171.837,256.813 171.484,256.518 171.484 C 256.451 171.484,255.924 171.977,255.347 172.580 M248.240 179.690 C 247.241 180.793,247.666 180.896,248.717 179.805 C 249.192 179.311,249.439 178.906,249.265 178.906 C 249.091 178.906,248.630 179.259,248.240 179.690 M206.642 182.616 C 205.348 183.994,205.821 184.134,207.153 182.768 C 207.758 182.148,208.096 181.641,207.905 181.641 C 207.714 181.641,207.146 182.079,206.642 182.616 M245.506 182.424 C 244.475 183.564,244.961 183.714,246.043 182.590 C 246.546 182.068,246.790 181.641,246.586 181.641 C 246.382 181.641,245.896 181.993,245.506 182.424 M242.771 185.159 C 241.773 186.262,242.198 186.365,243.248 185.274 C 243.723 184.779,243.970 184.375,243.797 184.375 C 243.623 184.375,243.161 184.728,242.771 185.159 M364.466 187.550 C 364.459 187.899,364.717 188.404,365.039 188.672 C 365.790 189.295,365.798 188.659,365.051 187.672 C 364.570 187.035,364.476 187.016,364.466 187.550 M194.599 194.654 C 193.676 195.637,193.530 196.094,194.141 196.094 C 194.355 196.094,194.531 195.852,194.531 195.555 C 194.531 195.259,194.927 194.741,195.410 194.404 C 195.894 194.067,196.100 193.782,195.869 193.770 C 195.638 193.759,195.066 194.157,194.599 194.654 M233.396 194.534 C 233.006 194.965,232.761 195.391,232.852 195.482 C 232.943 195.573,233.397 195.220,233.862 194.699 C 234.326 194.177,234.571 193.750,234.406 193.750 C 234.241 193.750,233.786 194.103,233.396 194.534 M187.109 202.148 C 186.711 202.628,186.738 202.734,187.257 202.734 C 187.605 202.734,187.891 202.471,187.891 202.148 C 187.891 201.826,187.824 201.563,187.743 201.563 C 187.662 201.563,187.377 201.826,187.109 202.148 M179.689 209.569 C 179.185 210.105,178.877 210.647,179.003 210.774 C 179.130 210.901,179.430 210.638,179.670 210.190 C 179.909 209.742,180.363 209.375,180.678 209.375 C 180.993 209.375,181.250 209.199,181.250 208.984 C 181.250 208.323,180.648 208.548,179.689 209.569 M218.553 209.377 C 217.550 210.485,217.975 210.575,219.105 209.494 C 219.622 208.999,219.869 208.594,219.654 208.594 C 219.438 208.594,218.943 208.946,218.553 209.377 M176.377 212.875 C 176.046 213.411,176.339 213.813,176.916 213.615 C 177.153 213.534,177.183 213.258,176.989 212.947 C 176.745 212.554,176.587 212.535,176.377 212.875 M175.000 214.258 C 174.602 214.738,174.628 214.844,175.147 214.844 C 175.496 214.844,175.781 214.580,175.781 214.258 C 175.781 213.936,175.715 213.672,175.634 213.672 C 175.553 213.672,175.267 213.936,175.000 214.258 M170.974 218.219 C 170.682 218.510,171.002 219.141,171.442 219.141 C 171.609 219.141,171.745 218.877,171.745 218.555 C 171.745 217.942,171.400 217.792,170.974 218.219 M209.178 218.752 C 208.179 219.856,208.604 219.958,209.654 218.867 C 210.130 218.373,210.377 217.969,210.203 217.969 C 210.029 217.969,209.568 218.321,209.178 218.752 M167.580 221.678 C 166.285 223.056,166.759 223.197,168.091 221.830 C 168.695 221.210,169.034 220.703,168.843 220.703 C 168.652 220.703,168.083 221.142,167.580 221.678 M206.443 221.487 C 205.412 222.626,205.899 222.777,206.980 221.653 C 207.483 221.131,207.728 220.703,207.523 220.703 C 207.319 220.703,206.833 221.056,206.443 221.487 M203.709 224.221 C 202.710 225.325,203.135 225.427,204.185 224.336 C 204.661 223.842,204.908 223.438,204.734 223.438 C 204.560 223.438,204.099 223.790,203.709 224.221 M164.312 224.880 C 163.886 225.307,164.036 225.651,164.648 225.651 C 164.971 225.651,165.234 225.515,165.234 225.349 C 165.234 224.909,164.604 224.589,164.312 224.880 M27.734 226.296 C 27.734 226.605,27.984 227.065,28.290 227.318 C 28.745 227.697,28.807 227.634,28.633 226.969 C 28.378 225.992,27.734 225.511,27.734 226.296 M158.814 230.428 C 158.695 230.620,158.861 230.878,159.182 231.001 C 159.536 231.138,159.766 231.000,159.766 230.652 C 159.766 230.020,159.155 229.876,158.814 230.428 M29.083 232.876 C 28.905 233.184,28.927 233.263,29.137 233.070 C 29.342 232.881,29.701 233.378,29.985 234.242 L 30.477 235.742 30.270 234.387 C 30.027 232.793,29.511 232.136,29.083 232.876 M155.537 233.717 C 154.613 234.699,154.468 235.156,155.078 235.156 C 155.293 235.156,155.469 234.914,155.469 234.618 C 155.469 234.322,155.864 233.804,156.348 233.467 C 156.831 233.129,157.037 232.844,156.806 232.833 C 156.575 232.822,156.004 233.219,155.537 233.717 M194.334 233.596 C 193.303 234.735,193.789 234.886,194.871 233.762 C 195.374 233.240,195.618 232.813,195.414 232.813 C 195.210 232.813,194.724 233.165,194.334 233.596 M152.203 236.990 C 151.777 237.416,151.927 237.760,152.539 237.760 C 152.861 237.760,153.125 237.624,153.125 237.458 C 153.125 237.018,152.495 236.698,152.203 236.990 M4.712 245.753 C 4.684 246.476,5.748 247.507,6.129 247.126 C 6.267 246.988,6.169 246.875,5.912 246.875 C 5.654 246.875,5.285 246.479,5.090 245.996 C 4.851 245.401,4.729 245.323,4.712 245.753 M179.490 248.440 C 178.487 249.548,178.912 249.637,180.042 248.556 C 180.560 248.061,180.807 247.656,180.591 247.656 C 180.376 247.656,179.880 248.009,179.490 248.440 M37.109 258.691 C 37.109 258.996,37.378 259.245,37.706 259.245 C 38.381 259.245,38.281 258.529,37.573 258.293 C 37.318 258.208,37.109 258.387,37.109 258.691 M352.604 258.464 C 352.155 258.913,352.320 259.375,352.930 259.375 C 353.252 259.375,353.516 259.111,353.516 258.789 C 353.516 258.179,353.054 258.014,352.604 258.464 M9.043 259.746 C 9.129 260.004,9.327 260.202,9.482 260.186 C 9.949 260.137,9.859 259.601,9.355 259.434 C 9.098 259.348,8.957 259.488,9.043 259.746 M167.381 260.549 C 166.350 261.689,166.836 261.839,167.918 260.715 C 168.421 260.193,168.665 259.766,168.461 259.766 C 168.257 259.766,167.771 260.118,167.381 260.549 M165.112 262.814 C 164.535 263.417,164.063 264.031,164.063 264.178 C 164.063 264.325,164.590 263.894,165.234 263.220 C 166.332 262.071,166.578 261.719,166.284 261.719 C 166.217 261.719,165.689 262.212,165.112 262.814 M10.503 263.585 C 10.763 264.075,11.155 264.365,11.374 264.230 C 11.592 264.095,11.715 263.952,11.647 263.913 C 11.579 263.874,11.187 263.584,10.776 263.268 C 10.071 262.728,10.055 262.746,10.503 263.585 M155.271 272.659 C 154.240 273.798,154.727 273.948,155.808 272.825 C 156.311 272.302,156.556 271.875,156.352 271.875 C 156.147 271.875,155.661 272.228,155.271 272.659 M376.172 272.767 C 376.172 273.114,375.864 273.578,375.488 273.797 C 374.865 274.160,374.862 274.196,375.462 274.207 C 376.118 274.219,376.841 272.804,376.403 272.366 C 376.276 272.239,376.172 272.420,376.172 272.767 M49.349 282.932 C 49.349 283.224,49.588 283.464,49.881 283.464 C 50.474 283.464,50.370 282.741,49.748 282.533 C 49.528 282.460,49.349 282.639,49.349 282.932 M340.495 282.682 C 340.020 283.157,340.225 283.594,340.918 283.588 C 341.453 283.583,341.486 283.508,341.069 283.244 C 340.620 282.960,340.620 282.874,341.069 282.695 C 341.362 282.579,341.411 282.470,341.178 282.453 C 340.946 282.436,340.638 282.539,340.495 282.682 M52.043 287.183 C 52.128 287.438,52.406 287.716,52.661 287.801 C 52.947 287.896,53.034 287.718,52.888 287.337 C 52.616 286.627,51.808 286.480,52.043 287.183 M25.130 294.716 C 25.130 295.026,25.365 295.369,25.651 295.479 C 25.938 295.589,26.172 295.530,26.172 295.348 C 26.172 295.166,25.938 294.823,25.651 294.585 C 25.258 294.259,25.130 294.291,25.130 294.716 M58.594 296.680 C 58.594 297.002,58.879 297.266,59.228 297.266 C 59.747 297.266,59.773 297.160,59.375 296.680 C 59.108 296.357,58.822 296.094,58.741 296.094 C 58.660 296.094,58.594 296.357,58.594 296.680 M331.250 296.680 C 330.852 297.160,330.878 297.266,331.397 297.266 C 331.746 297.266,332.031 297.002,332.031 296.680 C 332.031 296.357,331.965 296.094,331.884 296.094 C 331.803 296.094,331.517 296.357,331.250 296.680 M62.500 301.911 C 62.500 302.103,62.778 302.367,63.118 302.497 C 64.073 302.864,64.200 302.784,63.672 302.148 C 63.133 301.499,62.500 301.371,62.500 301.911 M327.214 301.823 C 326.739 302.297,326.944 302.713,327.539 302.485 C 327.861 302.361,328.125 302.103,328.125 301.911 C 328.125 301.502,327.587 301.450,327.214 301.823 M34.839 309.399 C 34.933 309.681,35.240 309.989,35.522 310.083 C 35.815 310.181,35.962 310.034,35.864 309.741 C 35.770 309.459,35.463 309.152,35.181 309.058 C 34.888 308.960,34.741 309.106,34.839 309.399 M354.867 309.401 C 354.725 309.630,354.703 309.911,354.818 310.026 C 355.098 310.306,355.859 309.813,355.859 309.352 C 355.859 308.853,355.185 308.886,354.867 309.401 M72.266 312.406 C 72.266 312.724,74.137 314.844,74.418 314.844 C 74.806 314.844,74.111 313.714,73.603 313.519 C 73.297 313.402,73.047 313.037,73.047 312.708 C 73.047 312.379,72.871 312.109,72.656 312.109 C 72.441 312.109,72.266 312.243,72.266 312.406 M317.578 312.642 C 317.578 313.007,317.328 313.402,317.022 313.519 C 316.717 313.636,316.374 313.973,316.261 314.268 C 316.135 314.597,316.253 314.728,316.567 314.608 C 317.226 314.355,318.180 312.581,317.839 312.240 C 317.696 312.097,317.578 312.278,317.578 312.642 M351.367 314.844 C 350.978 315.273,350.857 315.625,351.098 315.625 C 351.338 315.625,351.723 315.273,351.953 314.844 C 352.183 314.414,352.304 314.063,352.223 314.063 C 352.141 314.063,351.756 314.414,351.367 314.844 M41.140 317.769 C 41.187 318.224,41.541 318.579,41.997 318.625 C 42.560 318.683,42.592 318.651,42.114 318.508 C 41.751 318.400,41.366 318.015,41.257 317.652 C 41.115 317.173,41.082 317.206,41.140 317.769 M77.344 317.543 C 77.344 317.724,77.607 318.092,77.930 318.359 C 78.407 318.755,78.516 318.736,78.516 318.254 C 78.516 317.928,78.252 317.561,77.930 317.437 C 77.607 317.313,77.344 317.361,77.344 317.543 M312.598 317.469 C 312.005 317.681,311.943 318.750,312.523 318.750 C 312.751 318.750,312.837 318.589,312.716 318.393 C 312.594 318.196,312.716 317.957,312.986 317.860 C 313.256 317.764,313.389 317.597,313.281 317.490 C 313.174 317.382,312.866 317.373,312.598 317.469 M349.219 317.680 C 349.219 318.022,348.911 318.382,348.535 318.481 C 347.894 318.648,347.895 318.662,348.547 318.705 C 349.254 318.751,349.908 317.747,349.462 317.301 C 349.328 317.167,349.219 317.337,349.219 317.680 M87.793 326.821 C 88.062 326.930,88.281 327.267,88.281 327.572 C 88.281 327.876,88.457 328.125,88.672 328.125 C 88.887 328.125,89.063 327.984,89.063 327.813 C 89.063 327.350,88.187 326.558,87.715 326.593 C 87.489 326.610,87.524 326.713,87.793 326.821 M302.031 327.031 C 301.480 327.582,301.419 328.125,301.908 328.125 C 302.097 328.125,302.345 327.773,302.457 327.344 C 302.695 326.432,302.658 326.404,302.031 327.031 M89.844 328.415 C 90.166 328.540,90.659 328.921,90.940 329.263 C 91.372 329.789,91.385 329.749,91.023 329.004 C 90.789 328.521,90.296 328.139,89.928 328.156 C 89.385 328.181,89.369 328.230,89.844 328.415 M107.268 340.788 C 107.399 341.128,107.677 341.406,107.887 341.406 C 108.400 341.406,108.079 340.518,107.495 340.324 C 107.209 340.229,107.122 340.407,107.268 340.788 M282.682 340.495 C 282.233 340.944,282.398 341.406,283.008 341.406 C 283.330 341.406,283.594 341.143,283.594 340.820 C 283.594 340.210,283.132 340.045,282.682 340.495 M114.355 344.857 C 115.134 345.673,115.438 345.626,115.100 344.743 C 114.972 344.412,114.599 344.141,114.270 344.141 C 113.764 344.141,113.777 344.251,114.355 344.857 M258.464 352.604 C 258.043 353.025,258.163 353.385,258.724 353.385 C 259.010 353.385,259.245 353.151,259.245 352.865 C 259.245 352.304,258.884 352.184,258.464 352.604 M309.668 354.957 C 309.292 355.055,308.984 355.298,308.984 355.497 C 308.984 356.009,309.448 355.927,310.329 355.261 C 311.088 354.687,310.948 354.622,309.668 354.957 M83.594 357.711 C 83.916 357.837,84.373 358.201,84.608 358.521 C 84.901 358.919,85.121 358.967,85.303 358.673 C 85.584 358.218,84.391 357.401,83.522 357.453 C 83.164 357.474,83.186 357.553,83.594 357.711 M163.877 362.484 C 163.546 363.020,163.839 363.423,164.416 363.224 C 164.653 363.143,164.683 362.867,164.489 362.556 C 164.245 362.163,164.087 362.144,163.877 362.484 M226.030 362.698 C 225.894 363.052,226.031 363.281,226.379 363.281 C 227.011 363.281,227.155 362.671,226.603 362.330 C 226.411 362.211,226.153 362.377,226.030 362.698 M171.558 363.696 C 171.652 363.978,171.959 364.286,172.241 364.380 C 172.534 364.478,172.681 364.331,172.583 364.038 C 172.489 363.756,172.181 363.448,171.899 363.354 C 171.606 363.257,171.460 363.403,171.558 363.696 M218.181 363.645 C 217.789 364.278,218.640 364.471,219.144 363.863 C 219.537 363.390,219.513 363.281,219.016 363.281 C 218.680 363.281,218.304 363.445,218.181 363.645 M130.151 380.884 C 130.245 381.166,130.553 381.473,130.835 381.567 C 131.128 381.665,131.274 381.519,131.177 381.226 C 131.083 380.944,130.775 380.636,130.493 380.542 C 130.200 380.444,130.054 380.591,130.151 380.884 M234.668 387.923 C 234.292 388.335,234.150 388.672,234.352 388.672 C 234.554 388.672,234.830 388.493,234.965 388.275 C 235.100 388.057,235.345 387.961,235.509 388.062 C 235.673 388.164,235.807 387.991,235.807 387.678 C 235.807 386.938,235.509 387.002,234.668 387.923 " stroke="none" fill="#00ff00" fill-rule="evenodd"></path><path id="path4" d="" stroke="none" fill="#ffff00" fill-rule="evenodd"></path></g></svg>